/* XPM */
static char * egg1_xpm[] = {
"64 64 255 2",
"  	c #121411",
". 	c #1A1C19",
"+ 	c #391F20",
"@ 	c #571D27",
"# 	c #282F4F",
"$ 	c #5C2C27",
"% 	c #8F221B",
"& 	c #3C3E3B",
"* 	c #3F4D6E",
"= 	c #C7451F",
"- 	c #9D6245",
"; 	c #9E6346",
"> 	c #9A6546",
", 	c #9F6447",
"' 	c #966845",
") 	c #A06548",
"! 	c #9C6747",
"~ 	c #976946",
"{ 	c #8F6C46",
"] 	c #9D6848",
"^ 	c #697291",
"/ 	c #946B47",
"( 	c #986A47",
"_ 	c #996A48",
": 	c #906D47",
"< 	c #9E6949",
"[ 	c #956C48",
"} 	c #916E48",
"| 	c #9F6A4A",
"1 	c #966D49",
"2 	c #8D7047",
"3 	c #887247",
"4 	c #9B6C4A",
"5 	c #7F7547",
"6 	c #926F49",
"7 	c #8E7143",
"8 	c #A16B45",
"9 	c #847447",
"0 	c #976E4A",
"a 	c #8E7148",
"b 	c #A16B4B",
"c 	c #897348",
"d 	c #9C6D4B",
"e 	c #807648",
"f 	c #75794D",
"g 	c #93704A",
"h 	c #777947",
"i 	c #7B7847",
"j 	c #A26C46",
"k 	c #707B4D",
"l 	c #857548",
"m 	c #986F4B",
"n 	c #8F7249",
"o 	c #A26C4C",
"p 	c #6D7D48",
"q 	c #9E6E46",
"r 	c #8A7449",
"s 	c #9D6E4C",
"t 	c #787A48",
"u 	c #687F48",
"v 	c #588449",
"w 	c #50864F",
"x 	c #A36D47",
"y 	c #528649",
"z 	c #57844F",
"A 	c #867649",
"B 	c #737C48",
"C 	c #99704C",
"D 	c #6E7E49",
"E 	c #9F6F47",
"F 	c #95724B",
"G 	c #82784A",
"H 	c #5F8349",
"I 	c #9F6F4D",
"J 	c #59854A",
"K 	c #887744",
"L 	c #53874A",
"M 	c #A36E4D",
"N 	c #87774A",
"O 	c #747D49",
"P 	c #648249",
"Q 	c #91744B",
"R 	c #A07048",
"S 	c #8C764B",
"T 	c #7B7C44",
"U 	c #96734C",
"V 	c #60844A",
"W 	c #6A8149",
"X 	c #7A7C4A",
"Y 	c #7F7B44",
"Z 	c #A0704E",
"` 	c #5A864B",
" .	c #897845",
"..	c #7E7B4A",
"+.	c #54884B",
"@.	c #88784B",
"#.	c #65834A",
"$.	c #9B724D",
"%.	c #A66F49",
"&.	c #7C7D45",
"*.	c #97744D",
"=.	c #61854B",
"-.	c #A27149",
";.	c #6B824A",
">.	c #5B874C",
",.	c #55894C",
"'.	c #817C45",
").	c #9D7349",
"!.	c #66844B",
"~.	c #997548",
"{.	c #8E784D",
"].	c #638646",
"^.	c #7D7E46",
"/.	c #A3724A",
"(.	c #0098E0",
"_.	c #568A4C",
":.	c #967742",
"<.	c #788046",
"[.	c #5E8847",
"}.	c #9E744A",
"|.	c #957748",
"1.	c #8A7A4D",
"2.	c #77804C",
"3.	c #67854C",
"4.	c #94774E",
"5.	c #917942",
"6.	c #887C41",
"7.	c #72824C",
"8.	c #8F794E",
"9.	c #748247",
"0.	c #648747",
"a.	c #6E8446",
"b.	c #867C4D",
"c.	c #99764F",
"d.	c #63874D",
"e.	c #A4734B",
"f.	c #6D844C",
"g.	c #7D7F4D",
"h.	c #798147",
"i.	c #5F8948",
"j.	c #9F754B",
"k.	c #8B7B4E",
"l.	c #827E4D",
"m.	c #95784F",
"n.	c #9B774A",
"o.	c #877D4E",
"p.	c #7F8048",
"q.	c #9A7750",
"r.	c #A5744C",
"s.	c #608A49",
"t.	c #7C8242",
"u.	c #97794A",
"v.	c #548E49",
"w.	c #837F4E",
"x.	c #6B8748",
"y.	c #A1764B",
"z.	c #967950",
"A.	c #927B4A",
"B.	c #768448",
"C.	c #668949",
"D.	c #708648",
"E.	c #927B50",
"F.	c #628B43",
"G.	c #5A8D49",
"H.	c #8D7D4F",
"I.	c #6C8849",
"J.	c #A2774C",
"K.	c #8A7F4A",
"L.	c #718749",
"M.	c #738743",
"N.	c #638C44",
"O.	c #5B8E4A",
"P.	c #5D8E44",
"Q.	c #86814A",
"R.	c #698B44",
"S.	c #648D45",
"T.	c #5E8F45",
"U.	c #7D854B",
"V.	c #6F8A45",
"W.	c #6A8C45",
"X.	c #5F9046",
"Y.	c #8F8241",
"Z.	c #688F41",
"`.	c #609147",
" +	c #629140",
".+	c #908342",
"++	c #8F8348",
"@+	c #639241",
"#+	c #728D48",
"$+	c #89873C",
"%+	c #9A8149",
"&+	c #699142",
"*+	c #5E9543",
"=+	c #928544",
"-+	c #858A3C",
";+	c #848A43",
">+	c #758F43",
",+	c #659443",
"'+	c #5F9644",
")+	c #90883E",
"!+	c #67953E",
"~+	c #878C3E",
"{+	c #68963F",
"]+	c #63983F",
"^+	c #928A40",
"/+	c #878D46",
"(+	c #699740",
"_+	c #659939",
":+	c #649940",
"<+	c #8A8E3A",
"[+	c #6B983A",
"}+	c #938B41",
"|+	c #928B47",
"1+	c #6A9841",
"2+	c #86903A",
"3+	c #669A3A",
"4+	c #659A41",
"5+	c #8F8D42",
"6+	c #6C993B",
"7+	c #87913B",
"8+	c #679B3B",
"9+	c #8B9042",
"0+	c #6D9A3C",
"a+	c #EC770C",
"b+	c #88923C",
"c+	c #689C3C",
"d+	c #809635",
"e+	c #6E9B3D",
"f+	c #6A9D36",
"g+	c #7F963D",
"h+	c #89933D",
"i+	c #699D3D",
"j+	c #6F9C3E",
"k+	c #6B9E37",
"l+	c #80973E",
"m+	c #829837",
"n+	c #729D37",
"o+	c #6C9F38",
"p+	c #81983F",
"q+	c #839938",
"r+	c #739E38",
"s+	c #6FA031",
"t+	c #6DA039",
"u+	c #70A132",
"v+	c #71A233",
"w+	c #72A335",
"x+	c #74A42D",
"y+	c #73A536",
"z+	c #92A0B9",
"A+	c #E79B66",
"B+	c #FDA302",
"C+	c #FFC818",
"D+	c #C6CFDD",
"E+	c #F8C9A0",
"F+	c #FFFFFF",
"w+w+w+w+u+X.(+w+,++.1+x+v+{+,+v+w+v+6+@+w+w+w+k+T.s+w+f+T.u+r+P.u+o+O.G.o+w+w+w+X.0+v+w+u+v+w+w+w+v+,+{+x+v+{+X.v+0+L  +v+u+w+w+",
"u+v+w+v+ +J =.[+@+!+w+v+!+,+(+!+w+6+,+v+w+v+u+w+i+T.f+P.s+s+P.o+u+P.k+u+w+w+u+v+u+X.j+v+,+e+v+u+u+,+!+v+w+(+` V &+1+X.u+e+X.u+w+",
"G.i+u+`.J 3 _ X J {+v+{+V V ,+v+6+@+v+v+u+e+X.v+k++.,.G.s+s+G.u+t+G.t+w+u+u+X.i+w+T.0+ +6+w+,+[.].` {+w+(+` t _ N ` S.e+G.G. +u+",
"t+X.[.` 3 E e.d ~ X [..._ ~ $+y+(+ +w+e+G.G.+.X.i+J H J F.n+G.k+G.,.k+u+T.G.+.G.i+T.,.+.6+w+@+e _ i !+{+` t d e.I ~ c S.o+s+j+G.",
"u+N.3 _ R e.r.e.| ~ / s /./.^+_+,. +e+G.J J J ` [.W / / } 0.J [.J L G.G.+.J J J [.` J J >.0+@+k.e.d T T _ d e.r.r.I > l  +v+v+t+",
"i.c E /.e.r.r.r.e././.e.r.r.K.G.L ,.[.J D / / / / 1 /./.-.[ / : H J J J H 2 / / / / / / / <.,.k.r.e.d d /./.r.r.r.e.o 2 `  +v+w+",
"/ > ! ] ] Z r.r.r.r.r.r.r.e.y.l.J J O / ~ < /./././.r.r.r./.-.! / / / / / > E /./././././.0 / _ ] ] > > ] ] o r.r.r.e.I 3 `  +v+",
"W : > > > ! ] ] R r.r.r.I ] ] _ / / _ > > > ] ] | e.r.r./.< ] > > > > > > > ] ] ] -.r.r.r.| ; > > > > > > > > ] ] s r.e.I 3 ` G.",
"f+I.*././.< > > ! < < < ! > | /./././././.I > > > < < < ] > > -./././././.-.] > > ] < < < ! > s /./././././.s > > > < < ! : G.f+",
"P.K ).r.r./.-.-.-.-.-.-.-.-./.r.r.r.r.r.r.e.-.-.-.-.-.-.-.-./.r.r.r.r.r.r.r./.-.-.-.-.-.-.-.-.e.r.r.r.r.r.r.e.-.-.-.-.q { x.k+w+",
"v : -.r.r.r.r.r.r.I < < I r.r.r.r.r.r.r.r.r.r.r.r.r.r.r.r.r.r.r.r.r.r.r.r.r.r.r.r.r.s < < -.r.r.r.r.r.r.r.r.r.r.r.r.-.] 2 ,.T.P.",
"J : ] < -.r.r.r.r./.-.-./.r.r.r.r.-.< < s r.r.r.r.r.r.r.r.r.r.r.r.r.r.r.r.r.r.r.r.r./.-.-.e.r.r.r.I < < < I r.r.r.r.e.U I.i+(+L ",
"2 ~ > > ] < -.I Z r.r.R < < E -.< ] > > > < s r.r./.< < < < < < < < < < /.r.r.r.s /.r.r.q < -.I < ! > > > ! < I -.q r.E.T.w+v+e+",
"; > o Z Z R /././.r.r./.| 2 A ] ; < Z Z Z R -.r./.< ~ O O B B B B O O ~ < /.r.r.-.e.r.r./.R e.1.2 b -.Z Z Z R /./.-.r.j.Q.!+w+w+",
"O / -.r.r.r.r.r.r.r.r.R a W.;+Z R /.r.r.r.r.r./.< ~ O L _.6+8+8+4+,.L O ~ < | /.r.r.r.r.r.r.r./+W.a R J.r.r.r.r.r.r.r.r.m.,.!+w+",
"L : %.r.r.I | | | | | r W.o+h+r.r.r.r.r.r./.q /./ p G.6+8+y+x+x+w+8+_+_.O _ o b | | | /.r.r.r.h+o+W.a R r.r.-.| | | | o m.G.(+ +",
"v p X g.F > ; ; ; > ; { 6.=+%+r.r.r./.| b < > < ~ 9 K Y.Y..+|+|+|+|+|+ .9 ~ < > ; ; > < b | -.%+|+++4.o | b ] ; ; { t.7+g+(+,+1+",
"1+1+:+G.S o I I I < ; ; - ) | b b b < ; ! I I I I b ; - - ; | b b b | , ; o I I I I ] ; ; ; < | b b b ] ; < I E F D G.4+x+u+0+w+",
"x+x+6+U.n.r.R b /.-.I I I I < ; ; ; ] I Z r./.b I e.I I I I s > ; ; > s I e.r.I b /.-.I I I I ] ; ; ; < I -.J.-.@.L y G.,+(+x+w+",
",+,+G.E.r.r.Z o /.J.r.r.r.r./.q q q Z r.r.r./.q I r.J.r.r.r.r.I q q I e.r.r.r.I q /.J.r.r.r.r.-.q q q -.r.r.r./.@.y G.(+{+!+1+w+",
"{+G.L E.r.r.r.r.Z s -.r.r.r.r.r.r.r.r.r.r.r.r.r.e.s I r.r.r.r.r.r.r.r.r.r.r.r.r.r.I s /.r.r.r.r.r.r.r.r.r.r.r.r.q.2.G.0+x+s+!+!+",
"{+G.L E.r.r.r.r.Z b -.r.r.r.r.r.r.r.r.r.r.r.r.r./.s I r.r.r.r.r.r.r.r.r.r.r.r.r.r.I s /.r.r.r.r.r.r.r.r.r.r.r.r.r.E.y G.0+w+s+!+",
",+,+G.Q x /.r.r.r.r.r.r.r.r.r./.q q q q q R r.r.r.r.r.r.r.r.r.r.I q q q q I e.r.r.r.r.r.r.r.r.r.-.q q q q q -.r.r.q.2.y T.w+w+x+",
"x+e+G.2 ; | I I /.r.r.r./.I I < ; ; ; ; ; ! I I R r.r.r.e.I I o > ; ; ; ; > b I I e.r.r.r.-.I I < ; ; ; ; ; < I I R E.L G.0+w+w+",
"(+G.L n 8 ! ; ; < I I I < ; ] b b b b b b < ; ; > I I o j , > | b b b b b b > ; ; b I I I ] ; < b b b b b b < ; ; ! S L G.{+w+w+",
" +G.L E.r.I | | | | b b | | R r.r.r.r.r.r./.b | | | 4 c 9 c s r.r.r.r.r.r.r.q | | | | b b | | -.r.r.r.r.r.r.-.| | b S G.(+x+u+1+",
"w+P.y w.n.r.r.r.r./.I I /.r.r.r.r.r.r.r.r.r.r.r.r.y.o.J +.V {.{.m.e.r.r.r.r.r.r.r.r.-.I I /.r.r.r.r.r.r.r.r.r.r.r.r.E.G.0+6+(+ +",
"w+!+,.L A.r.r.r.r.I < < R r.r.r.r./.R R -.r.r.r.r.z.>.X.V 7.'...'.8.m.E.A.y.r.r.r.r.q < | -.r.r.r./.R R R /.r.r.r.r.A.L G.X.!+w+",
"w+w+{+G.l.)./././.r.r./.Z Z /./.Z b ; ; ] R -.e.-.z.i.(+=.Q.m m m  .f.T.,.o.$.e.-.e.r.r./.R /./.Z < ; > ; < Z /./.-.A.L G.f+w+w+",
"e+e+e+O.L r -.I Z r.r.R ! ~ g b ; ! < < < < s /.b q.!.L.Q.A+A+A+A+A+K.;+x.J g /.s /.r.r.q < -.F ~ ! < < < < < I -.j E._.X.@+f+w+",
"T.T.,.L L E.r.r.r.r.r.e.m <.p.< < q r.r.r.r.r.r.y.K.#+Y.%+A+E+E+E+A+A+r O ` z.r.r.r.r.r.r.r.r.U.&.m e.r.r.r.r.r.r.j.Q.!+x+k+,+w+",
"w+w+,+,.#.4.-.-.-.-.-.m &.:+h+r.r.r.r.r.r.e.R }.4.9./+%+A+E+E+E+E+E+A+n.k.g.~.}.}.-.-.e.r.r.r.h+:+&.m e.r.r.e.-.-.{.P.i+i+k+w+w+",
"f+f+f+O.{.< > > > > ; e ,+y+9+r.r.r.e.-./.I 0 ~.F S u.A+E+E+E+E+E+E+E+A+A+$.m ~.0 ( > q /.-.e.b+y+'+5 b /./.s > ; 3 _.P.P. +k+w+",
"O.O.P.,.r ] ] ] ] ] ] A &+v+9+Z /./.q > > | -.J.J.C J.E+E+E+E+E+E+E+E+E+A+$.j.J.y.s ! > > > b b+v+Z.3 ; > ! < ] _ e P.o+w+k+,+w+",
"w+v+o+R.m.r././.e.r.r.I A &+-+; > > > 4 ).J.r.A+r.j.J.E+E+E+E+E+E+E+E+E+A+$.r.r.r.J.$.4 ] ] ! ~+&+3 > > ] q r.e.{.L L T.k+o+w+w+",
"o+o+P.A.r.r.s ] R r.r.r.I A G ! ] ] b y.n.J.A+A+A+r.J.E+E+E+E+E+E+E+E+E+A+$.r.A+A+r.n.j.r.r.r.l.l > > I r.r.r.R r L ,.G.G. +t+w+",
"G.G.L E.r.r.r.e././.e.r.r.I s r.e.e.y.J.r.A+A+A+A+J.J.E+E+E+E+E+E+E+E+E+A+c.r.A+A+A+r.r.y.y.r.s ! ! I r.r.r.r.r.E.V T.o+v+f+ +o+",
"k+O.L E.r.r.r.r.q ! I r.r.r.r.r.r.y.n.r.A+A+A+A+A+J.A+E+E+E+E+E+E+E+E+E+A+q.r.A+A+A+A+r.n.j.r.r.e.e.r.r.r.r.r.r.r.H.L X.u+w+f+G.",
"G.G.+.8.e.e.r.r.e.e.r.r.r.r.r.e./.}.n.r.A+A+A+A+A+r.A+A+E+E+E+E+E+E+E+E+A+r.A+A+A+A+A+r.n.n.r.r.e./././././.e.r.r.E.V L X.w+w+u+",
"u+o+O.2 > I e.e.e.r.r.r.e.e.e.I > 0 |.r.A+A+A+A+A+A+A+A+A+A+A+A+A+A+A+A+A+A+A+A+A+A+A+r.n.n.e.e.b > > > > > b e.e.e.H.L P.u+w+w+",
"u+X.L a > > > > I e.e.e.q > ! ! > 0 |.J.A+A+A+A+A+A+A+r.J.J.J.J.J.J.J.J.A+A+A+A+A+A+A+r.n.~.( ! ! > > > > > > > > | E.L +.@+w+w+",
"G.` L 8.e.| > > ! ] ] ] ! > b e.e.j.n.J.r.A+A+A+A+A+A+A+A+A+A+A+A+A+A+A+A+A+A+A+A+A+r.J.u.~.( I e.e.e.e.e.e.I > > ) a L X.u+w+u+",
"t+P.L E.r.e././././././././.e.r.r.j.n.u.%+%+A+A+A+A+A+A+A+A+A+A+A+A+A+A+A+A+A+A+A+r.%+%+u.n./.e.r.r.r.r.r.r.e././.e.8.P.o+v+f+G.",
"w+X.L =.A.r.r.r.r.q ] ] I r.r.r.r.y.j.n.n.%+r.A+A+A+A+A+A+A+A+A+A+A+A+A+A+A+A+A+A+r.%+~.~.}.r.r.r.r.r.e.e.r.r.r.r.r.A.+.G.G.`.o+",
"w+s+T.L E.r.r.r.r.e./././.r.r.r.r.R _ m ~.u.%+J.J.J.r.A+A+A+A+A+A+A+r.J.J.J.A+A+A+r.u.}./.e.r.r.r.r.q ! ! o r.r.r.r.A.L O.k+s+w+",
"v+v+o+P.V n R o R r.r.I ] I r.R ] ! > ( 0 ~.u.%+%+%+J.A+A+A+A+A+A+A+J.%+%+%+r.A+A+e.n.y.s ] Z r.q ] ! > > ! ] q -.b A.L ,.@+v+w+",
"O.O.G.,.L 8.e./.e.r.r.e./.e.R ! > < /./.j.}.n.u.u.u.J.J.r.r.r.r.r.J.J.u.u.u.J.J.r.r.y.r././.e.q > > b /././././.e.e.E.P.k+0+@+w+",
"k+f+O.L L E.r.r.r.r.r.r.r.r.e./././.r.r.r.r.j.n.n.n.n.n.n.n.n.u.u.u.n.n.n.n.n.n.n.y.r.r.r.r.r./././.e.r.r.r.r.r.r.m.W.o+w+u+o+w+",
"w+w+r+P.b.d < < < ] R r.r.J.r.r.r.r.r.r.r./.4 ).).m ).j.j.j.n.n.j.n.n.n.j.j.C ).d < < -.r.r.r.r.J.r.r.r.r.r.Z < ] r ,.P.O.,+w+w+",
"5.5.:.7 4 > > > > > ! N >+q+}+r.r.r.-.< < ] > > / a.d+q+l+L.p+p+L.l+q+m+L.0 > > > > > ] < < Z 5+q+>+r < < < ! > > ~ : : 9 P.w+w+",
"p / ; ; o -.-.-.-.-.-.m <.3+<+] < < ] > ] -.-.I : ` @+w+w+f+w+w+f+w+w+@+` / I -.-.-.< > > > ) 2+3+<.~ > > < -.-.-.-.o ; : T.w+w+",
"e+D./ o e.r.I < -.r.r.e.m <.^.; > ; < -./.r./.< > l ` T.@+v+w+w+v+@+T.` 3 > < < < /./.-.-.-.R t.<.~ ; | -./.r.-.< I R { W ,.,+w+",
"`.Y C e.r.r./.R /.r.r.r.e.m g Z Z Z /.r.r.r.e.Z q > 9 v +.X.X.X.T.+.J l > I Z R R e.r.r.r.r.r.F ~ ; | /.r.r.r./.R I 6 I.c+e+1+X.",
"v : -.r.r.r.r.r.I < Z r.r././.r.r.r.r.r.r.r.r.r.e.q > 3 3 3 3 3 3 3 3 > I e.r.r.r.o < /.r.r.r./.R R /.r.r.r.r.r.r.R ' '.{+x+u+0+",
"L 2 -.r.r.r.r.r.-.I /.r.r.r.r.r.r.r.r.r.r.r.r.r.r.e.R E E E E E E E E R r.r.r.r.r.-.I /.r.r.r.r.r.r.r.r.r.r.r.r.r./.8 2 _.{+w+w+",
"3 ~ < b | /.r.r.r.r.r.r.r.r.r.-.| b b b | I r.r.r.r.r.r.r.J.J.J.J.J.r.o b b /.r.r.r.r.r.r.r.r.r.R | b b b | R r.r.r.e.C i _.{+w+",
"i / ; ; ; < b b -.r.r.r.-.b b < ; ; ; ; ; > b b q r.r.r.e.s b b b b | > ; > < b b /.r.r.r.I b b ] ; ; ; ; ; ] b b I J.e.C i ,.@+",
":+9./ | I ] ; ; < b b b ] ; < I I I I I I b ; ; > b b b | > > o q q q I I I > ; ; < b 8 b ! ; < I I I I I I < ; ; ! b b | : [.{+",
"!+<.m e.r.Z q q q q q q q q -.r.r.r.r.r.r./.q q q q q q q q I r.r.r.r.r.r.r.I q q j j r i i g /.r.r.r.r.r.r./.q q q q | / <.0+x+",
"v : -.J.r.r.J.r.r.-.s s -.r.z.l.E.r.r.r.r.r.r.r.r.r.r.r.r.r.r.r.r.r.r.r.r.r.r.r.r.H.l.!.y L 7.m.r.r.r.r.r.r.r.r.J.r./.| : G.!+!+",
"v : b q /.J.R /.J.-.s s -.r.o.v.#+b.w.w.b.l.H.r.y.b.l.o.r.r.r.r.r.r.r.r.k.l.b.w.w.!.y `.G.z X.++r.-.o q o -.J./.R J./.0 h.!+ +z ",
"!+^.' ; | x a g j j I I q j @.*+o+T.L L G.`.=.b.g.,.*+&+w.b.b.b.b.b.b.b.=.@+,.L L y X.o+ +T.o+}+M n : - ; ] x g a j j Q T.x+s+!+",
"(+G.h 9 ~ 2 V.9.9 l / ; { 9 k ,+x+0+G.X.X.t+X._.,+(+w+s+_.@+,.,+,+,.,+,+G.k+(+G.X.,+o+x+X.6+x+)+6 M.M.9 l : / 9.V.9 9 h G.0+w+x+",
"@+,+G.X.^.u 8+8+G.w O 3 B.*+,+0+o+!+6+e+T.x+r+(+w+x+v+(+!+r+G.u+v+!+1+u+G.k+w+(+r+x+x+e+,+n+f+t.p ]+c+G.G.M.f ,+k+P.G.,+,+,+0+w+"};
