/* XPM */
static char * empty_xpm[] = {
"64 64 255 2",
"  	c #9D6245",
". 	c #9E6346",
"+ 	c #9A6546",
"@ 	c #9F6447",
"# 	c #9B6647",
"$ 	c #966845",
"% 	c #A06548",
"& 	c #9C6747",
"* 	c #976946",
"= 	c #8F6C46",
"- 	c #936B46",
"; 	c #9D6848",
"> 	c #946B47",
", 	c #986A47",
"' 	c #906D47",
") 	c #8B6F47",
"! 	c #9E6949",
"~ 	c #956C48",
"{ 	c #996B48",
"] 	c #916E48",
"^ 	c #9F6A4A",
"/ 	c #966D49",
"( 	c #8D7047",
"_ 	c #887247",
": 	c #9B6C4A",
"< 	c #7F7547",
"[ 	c #926F49",
"} 	c #8E7143",
"| 	c #A16B45",
"1 	c #847447",
"2 	c #976E4A",
"3 	c #8E7148",
"4 	c #A16B4B",
"5 	c #897348",
"6 	c #9C6D4B",
"7 	c #807648",
"8 	c #75794D",
"9 	c #93704A",
"0 	c #777947",
"a 	c #7B7847",
"b 	c #A26C46",
"c 	c #707B4D",
"d 	c #857548",
"e 	c #986F4B",
"f 	c #8F7249",
"g 	c #A26C4C",
"h 	c #6D7D48",
"i 	c #9E6E46",
"j 	c #8A7449",
"k 	c #9D6E4C",
"l 	c #787A48",
"m 	c #687F48",
"n 	c #588449",
"o 	c #50864F",
"p 	c #A36D47",
"q 	c #528649",
"r 	c #57844F",
"s 	c #867649",
"t 	c #737C48",
"u 	c #99704C",
"v 	c #A36D4D",
"w 	c #6E7E49",
"x 	c #9F6F47",
"y 	c #8B754A",
"z 	c #95724B",
"A 	c #82784A",
"B 	c #5F8349",
"C 	c #9F6F4D",
"D 	c #59854A",
"E 	c #887744",
"F 	c #53874A",
"G 	c #90744B",
"H 	c #87774A",
"I 	c #747D49",
"J 	c #648249",
"K 	c #A46E4E",
"L 	c #A07048",
"M 	c #7B7C44",
"N 	c #96734C",
"O 	c #60844A",
"P 	c #6A8149",
"Q 	c #8D764B",
"R 	c #7A7C4A",
"S 	c #7F7B44",
"T 	c #A0704E",
"U 	c #5A864B",
"V 	c #897845",
"W 	c #7E7B4A",
"X 	c #54884B",
"Y 	c #88784B",
"Z 	c #65834A",
"` 	c #9B724D",
" .	c #A66F49",
"..	c #7C7D45",
"+.	c #97744D",
"@.	c #61854B",
"#.	c #A27149",
"$.	c #6B824A",
"%.	c #A1714F",
"&.	c #5B874C",
"*.	c #55894C",
"=.	c #817C45",
"-.	c #9D7349",
";.	c #66844B",
">.	c #7B7E4B",
",.	c #997548",
"'.	c #8E784D",
").	c #638646",
"!.	c #7D7E46",
"~.	c #A3724A",
"{.	c #578A46",
"].	c #568A4C",
"^.	c #967742",
"/.	c #788046",
"(.	c #5E8847",
"_.	c #9E744A",
":.	c #957748",
"<.	c #8A7A4D",
"[.	c #77804C",
"}.	c #67854C",
"|.	c #94774E",
"1.	c #917942",
"2.	c #887C41",
"3.	c #72824C",
"4.	c #62874C",
"5.	c #8F794E",
"6.	c #748247",
"7.	c #648747",
"8.	c #6E8446",
"9.	c #867C4D",
"0.	c #99764F",
"a.	c #A4734B",
"b.	c #6D844C",
"c.	c #7D7F4D",
"d.	c #588B47",
"e.	c #798147",
"f.	c #5F8948",
"g.	c #9F754B",
"h.	c #8B7B4E",
"i.	c #827E4D",
"j.	c #95784F",
"k.	c #7E8047",
"l.	c #758347",
"m.	c #9B774A",
"n.	c #907A4F",
"o.	c #877D4E",
"p.	c #9A7750",
"q.	c #A5744C",
"r.	c #598C48",
"s.	c #7B8242",
"t.	c #608A49",
"u.	c #8C7C4E",
"v.	c #97794A",
"w.	c #548E49",
"x.	c #837F4E",
"y.	c #6B8748",
"z.	c #A1764B",
"A.	c #967950",
"B.	c #927B4A",
"C.	c #768448",
"D.	c #9C784B",
"E.	c #668949",
"F.	c #708648",
"G.	c #728643",
"H.	c #927B50",
"I.	c #628B43",
"J.	c #5A8D49",
"K.	c #7C8343",
"L.	c #8D7D4F",
"M.	c #6C8849",
"N.	c #A2774C",
"O.	c #8A7F4A",
"P.	c #638C44",
"Q.	c #5B8E4A",
"R.	c #728749",
"S.	c #5D8E44",
"T.	c #86814A",
"U.	c #698B44",
"V.	c #7E8544",
"W.	c #648D45",
"X.	c #5E8F45",
"Y.	c #7D854B",
"Z.	c #6F8A45",
"`.	c #6A8C45",
" +	c #5F9046",
".+	c #8F8241",
"++	c #658F46",
"@+	c #688F41",
"#+	c #609147",
"$+	c #629140",
"%+	c #908342",
"&+	c #8F8348",
"*+	c #639241",
"=+	c #728D48",
"-+	c #89873C",
";+	c #9A814A",
">+	c #699142",
",+	c #649342",
"'+	c #5E9543",
")+	c #928544",
"!+	c #858A3C",
"~+	c #848A43",
"{+	c #758F43",
"]+	c #659443",
"^+	c #5F9644",
"/+	c #90883E",
"(+	c #67953E",
"_+	c #878C3E",
":+	c #68963F",
"<+	c #63983F",
"[+	c #928A40",
"}+	c #878D46",
"|+	c #918A46",
"1+	c #699740",
"2+	c #659939",
"3+	c #649940",
"4+	c #8A8E3A",
"5+	c #6B983A",
"6+	c #938B41",
"7+	c #928B47",
"8+	c #6A9841",
"9+	c #86903A",
"0+	c #669A3A",
"a+	c #659A41",
"b+	c #8F8D42",
"c+	c #6C993B",
"d+	c #87913B",
"e+	c #679B3B",
"f+	c #6D9A3C",
"g+	c #8C9043",
"h+	c #88923C",
"i+	c #689C3C",
"j+	c #809635",
"k+	c #6E9B3D",
"l+	c #6A9D36",
"m+	c #7F963D",
"n+	c #89933D",
"o+	c #699D3D",
"p+	c #6F9C3E",
"q+	c #6B9E37",
"r+	c #80973E",
"s+	c #829837",
"t+	c #729D37",
"u+	c #6C9F38",
"v+	c #81983F",
"w+	c #839938",
"x+	c #739E38",
"y+	c #6FA031",
"z+	c #6DA039",
"A+	c #70A132",
"B+	c #71A233",
"C+	c #72A335",
"D+	c #74A42D",
"E+	c #73A536",
"F+	c #75A62E",
"C+C+C+C+A+ +1+C+]+X 8+D+B+:+]+B+C+B+c+*+C+C+C+q+X.y+C+l+X.A+x+S.A+u+Q.J.u+C+C+C+ +f+B+C+A+B+C+C+C+B+]+:+D+B+:+ +B+f+F $+B+A+C+C+",
"A+B+C+B+$+D @.5+*+(+C+B+(+]+1+(+C+c+]+B+C+B+A+C+o+X.l+S.y+y+S.u+A+S.q+A+C+C+A+B+A+ +p+B+]+k+B+A+A+]+(+B+C+1+U O >+8+ +A+k+ +A+C+",
"J.o+A+#+D _ , R D :+B+:+O O ]+B+c+*+B+B+A+k+ +B+q+X *.J.y+y+J.A+z+J.z+C+A+A+ +o+C+X.f+$+c+C+]+(.).U :+C+1+U l , H U W.k+J.J.$+A+",
"z+ +(.U _ x a.6 * R (.W , * -+E+1+$+C+k+J.J.X  +o+D B D I.t+J.q+J.*.q+A+X.J.X J.o+X.*.X c+C+*+7 , a (+:+U l 6 a.C * 5 W.u+y+p+J.",
"A+P._ , L a.q.a.^ * > k ~.~.[+2+*.$+k+J.D D D U (.P > > ] 7.D (.D F J.J.X D D D (.U D D &.f+*+h.a.6 M M , 6 a.q.q.C + d $+B+B+z+",
"f.5 x ~.a.q.q.q.a.~.~.a.q.q.O.J.F *.(.D w > > > > / ~.~.#.~ > ' B D D D B ( > > > > > > > /.*.h.q.a.6 6 ~.~.q.q.q.a.v ( U $+B+C+",
"> + & ; ; T q.q.q.q.q.q.q.a.z.i.D D I > * ! ~.~.~.~.q.q.q.~.#.& > > > > > + x ~.~.~.~.~.~.2 > , ; ; + + ; ; g q.q.q.a.C _ U $+B+",
"P ' + + + & ; ; L q.q.q.C ; ; { > > , + + + ; ; ^ a.q.q.~.! ; + + + + + + + ; ; ; #.q.q.q.^ . + + + + + + + + ; ; k q.a.C _ U J.",
"l+M.+.~.~.! + + & ! ! ! & + ^ ~.~.~.~.~.~.C + + + ! ! ! ; + + #.~.~.~.~.~.#.; + + ; ! ! ! & + k ~.~.~.~.~.~.k + + + ! ! & ' J.l+",
"S.E -.q.q.~.#.#.#.#.#.#.#.#.~.q.q.q.q.q.q.a.#.#.#.#.#.#.#.#.~.q.q.q.q.q.q.q.~.#.#.#.#.#.#.#.#.a.q.q.q.q.q.q.a.#.#.#.#.i = y.q+C+",
"n ' #.q.q.q.q.q.q.C ! ! C q.q.q.q.q.q.q.q.q.q.q.q.q.q.q.q.q.q.q.q.q.q.q.q.q.q.q.q.q.k ! ! #.q.q.q.q.q.q.q.q.q.q.q.q.#.; ( *.X.S.",
"D ' ; ! #.q.q.q.q.~.#.#.~.q.q.q.q.#.! ! k q.q.q.q.q.q.q.q.q.q.q.q.q.q.q.q.q.q.q.q.q.~.#.#.a.q.q.q.C ! ! ! C q.q.q.q.a.N M.o+1+F ",
"( * + + ; ! #.C T q.q.L ! ! x #.! ; + + + ! k q.q.~.! ! ! ! ! ! ! ! ! ! ~.q.q.q.k ~.q.q.i ! #.C ! & + + + & ! C #.i q.H.X.C+B+k+",
". + g T T L ~.~.~.q.q.~.^ ( s ; . ! T T T L #.q.~.! * I I t t t t I I * ! ~.q.q.#.a.q.q.~.L a.<.( 4 #.T T T L ~.~.#.q.g.T.(+C+C+",
"I > #.q.q.q.q.q.q.q.q.L 3 `.~+T L ~.q.q.q.q.q.~.! * I F ].c+e+e+a+*.F I * ! ^ ~.q.q.q.q.q.q.q.}+`.3 L N.q.q.q.q.q.q.q.q.j.*.(+C+",
"F '  .q.q.C ^ ^ ^ ^ ^ j `.u+n+q.q.q.q.q.q.~.i ~.> h J.c+e+E+D+D+C+e+2+].I , g 4 ^ ^ ^ ~.q.q.q.n+u+`.3 L q.q.#.^ ^ ^ ^ g j.J.1+$+",
"n h R c.z + . . . + . = 2.)+;+q.q.q.~.^ 4 ! + ! * 1 E .+.+%+7+7+7+7+7+V 1 * ! + . . + ! 4 ^ #.;+7+&+|.g ^ 4 ; . . = s.d+m+1+]+8+",
"8+8+3+J.Q v C C C ! . .   % ^ 4 4 4 ! . & C C C C 4 .     . ^ 4 4 4 ^ @ . g C C C C ; . . . ! ^ 4 4 4 ; . ! C x z w J.a+D+A+f+C+",
"D+D+c+Y.m.q.L 4 ~.#.C C C C ! . . . ; C T q.~.4 C a.C C C C k + . . + k C a.q.C 4 ~.#.C C C C ; . . . ! C #.N.#.Y F q J.]+1+D+C+",
"]+]+J.H.q.q.T g ~.N.q.q.q.q.~.i i i T q.q.q.~.i C q.N.q.q.q.q.C i i C a.q.q.q.C i ~.N.q.q.q.q.#.i i i #.q.q.q.~.Y q J.1+:+(+8+C+",
":+J.F H.q.q.q.q.T k #.q.q.q.q.q.q.q.q.q.q.q.q.q.a.k C q.q.q.q.q.q.q.q.q.q.q.q.q.q.C k ~.q.q.q.q.q.q.q.q.q.q.q.q.p.[.J.f+D+y+(+(+",
":+J.F H.q.q.q.q.T 4 #.q.q.q.q.q.q.q.q.q.q.q.q.q.~.k C q.q.q.q.q.q.q.q.q.q.q.q.q.q.C k ~.q.q.q.q.q.q.q.q.q.q.q.q.q.H.q J.f+C+y+(+",
"]+]+J.G p ~.q.q.q.q.q.q.q.q.q.~.i i i i i L q.q.q.q.q.q.q.q.q.q.C i i i i C a.q.q.q.q.q.q.q.q.q.#.i i i i i #.q.q.p.[.q X.C+C+D+",
"D+k+J.( . ^ C C ~.q.q.q.~.C C ! . . . . . & C C L q.q.q.a.C C g + . . . . + 4 C C a.q.q.q.#.C C ! . . . . . ! C C L H.F J.f+C+C+",
"1+J.F f | & . . ! C C C ! . ; 4 4 4 4 4 4 ! . . + C C v b @ + ^ 4 4 4 4 4 4 + . . 4 C C C ; . ! 4 4 4 4 4 4 ! . . & Q F J.:+C+C+",
"$+J.F H.q.C ^ ^ ^ ^ 4 4 ^ ^ L q.q.q.q.q.q.~.4 ^ ^ ^ : 5 1 5 k q.q.q.q.q.q.q.i ^ ^ ^ ^ 4 4 ^ ^ #.q.q.q.q.q.q.#.^ ^ 4 Q J.1+D+A+8+",
"C+S.q x.m.q.q.q.q.~.C C ~.q.q.q.q.q.q.q.q.q.q.q.q.z.o.D F D h.h.H.q.q.q.q.q.q.q.q.q.#.C C ~.q.q.q.q.q.q.q.q.q.q.q.q.H.J.f+c+1+$+",
"C+(+*.F B.q.q.q.q.C ! ! L q.q.q.q.~.L L #.q.q.q.q.A.&. +D X X.*.W.L.H.H.B.z.q.q.q.q.i ! ^ #.q.q.q.~.L L L ~.q.q.q.q.B.F J. +(+C+",
"C+C+:+J.i.-.~.~.~.q.q.~.T T ~.~.T 4 . . ; L #.a.#.A.f.1+*.*+u+J.u+*+*.X.*.o.` a.#.a.q.q.~.L ~.~.T ! . + . ! T ~.~.#.B.F J.l+C+C+",
"k+k+k+Q.F j #.C T q.q.L & * 9 4 . & ! ! ! ! k ~.4 p.&.X.*+B+A+J.y+B+J.8+J.D 9 ~.k ~.q.q.i ! #.z * & ! ! ! ! ! C #.b H.]. +*+l+C+",
"X.X.*.F F H.q.q.q.q.q.a.e /.k.! ! i q.q.q.q.q.q.z.O.]+C+C+B+k+$+A+B+$+X F D A.q.q.q.q.q.q.q.q.Y...e a.q.q.q.q.q.q.g.T.(+D+q+]+C+",
"C+C+]+*.Z |.#.#.#.#.#.e ..3+n+q.q.q.q.q.q.a.#.#.|.f.p+o+l+A+*+A+q+B+B+$+U b.,.#.#.#.#.a.q.q.q.n+3+..e a.q.q.a.#.#.'.S.o+o+q+C+C+",
"l+l+l+Q.'.! + + + + . 7 ]+E+g+q.q.q.a.#.~.C + @ ' U S.S. +l+B+A+$+k+l+p+f.+.; + + + + i ~.#.a.h+E+^+< 4 ~.~.k + . _ ].S.S.$+q+C+",
"Q.Q.S.*.j ; ; ; ; ; ; s >+B+g+%.~.~.i + + ! ; ; _ f.q+C+y+$+A+x+A+ +Q.Q.U [ ; ; ; ; + + + + 4 h+B+@+_ . + & ! ; { 7 S.u+C+q+]+C+",
"C+B+u+U.j.q.~.~.a.q.q.C s >+!+. + + + ; 4 q.a.:.D F J.l+u+B+l+ +A+u+B+t+M.p.q.~.~.a.4 ; ; ; & _+>+_ + + ; i q.a.'.F F X.q+u+C+C+",
"u+u+S.B.q.q.k ; L q.q.q.C s A & ; ; 4 q.q.q.~.[ D X J.J. +u+J.y+A+J.x+t.A.q.q.^ ; ~.q.q.q.q.q.i.d + + C q.q.q.L j F *.J.J.$+z+C+",
"J.J.F H.q.q.q.a.~.~.a.q.q.C k q.a.a.q.q.q.q.q.v.;.J.q+q+u+z+J.A+q+J.q+t.m.q.q.q.a.~.~.a.q.q.q.k & & C q.q.q.q.q.H.O X.u+B+l+$+u+",
"q+Q.F H.q.q.q.q.i & C q.q.q.q.q.q.q.q.q.q.q.q.q.A.U @.4.E.p+J.p+J.*.p+f.H.q.q.q.q.4 ; #.q.q.q.q.a.a.q.q.q.q.q.q.q.L.F  +A+C+l+J.",
"J.J.X 5.a.a.q.q.a.a.q.q.q.q.q.a.~.~.~.~.~.a.q.q.A.3.z.z.m.}.@.@.D F U O $.0.q.q.q.a.a.q.q.q.q.q.a.~.~.~.~.~.a.q.q.H.O F  +C+C+A+",
"A+u+Q.( + C a.a.a.q.q.q.a.a.a.C + + + + + ! a.a.a.z.q.q.q.g._.0.Z B J > * & #.a.a.q.q.q.q.a.a.a.4 + + + + + 4 a.a.a.L.F S.A+C+C+",
"A+ +F 3 + + + + C a.a.a.i + & & + + + + + + + + ! ~.a.a.~.& & ; { , , & + + + + & T a.a.a.^ + & & + + + + + + + + ^ H.F X *+C+C+",
"J.U F 5.a.^ + + & ; ; ; & + 4 a.a.a.a.a.a.T + + & ; ; ; ; + ; ~.a.a.a.a.a.~.! + + & ; ; ; & + C a.a.a.a.a.a.C + + % 3 F  +A+C+A+",
"z+S.F H.q.a.~.~.~.~.~.~.~.~.a.q.q.q.q.q.q.q.~.~.~.~.~.~.~.~.~.q.q.q.q.q.q.q.a.~.~.~.~.~.~.~.~.a.q.q.q.q.q.q.a.~.~.a.5.S.u+B+l+J.",
"C+ +F @.B.q.q.q.q.i ; ; C q.q.q.q.q.a.a.a.q.q.q.q.~.; ; ! a.q.q.q.q.a.a.a.q.q.q.q.q.4 ; ; #.q.q.q.q.q.a.a.q.q.q.q.q.B.X J.J.#+u+",
"C+y+X.F H.q.q.q.q.a.~.~.~.q.q.q.q.L & & ^ a.q.q.q.q.~.~.~.a.q.q.a.a.! & ; ~.q.q.q.q.~.~.~.a.q.q.q.q.i & & g q.q.q.q.B.F Q.q+y+C+",
"B+B+u+S.O f L g L q.q.C ; C q.L ; & + + + ; 4 ~.^ q.q.~.! ! a.a.! ; + + + ; ; ~.4 #.q.q.k ; T q.i ; & + + & ; i #.4 B.F *.*+B+C+",
"Q.Q.J.*.F 5.a.~.a.q.q.a.~.a.L & + ! ~.~.~.~.~.a.~.q.q.q.~.~.a.! + + #.~.~.~.~.a.~.a.q.q.~.~.a.i + + 4 ~.~.~.~.~.a.a.H.S.q+f+*+C+",
"q+l+Q.F F H.q.q.q.q.q.q.q.q.a.~.~.~.q.q.q.q.q.q.q.q.q.q.q.q.q.~.~.~.q.q.q.q.q.q.q.q.q.q.q.q.q.~.~.~.a.q.q.q.q.q.q.j.`.u+C+A+u+C+",
"C+C+x+S.9.6 ! ! ! ; L q.q.N.q.q.q.q.q.q.q.~.! ! ! ; 4 q.q.q.N.N.q.N.N.N.q.q.^ ! ! ! ! #.q.q.q.q.N.q.q.q.q.q.T ! ; j *.S.Q.]+C+C+",
"1.1.^.} : + + + + + & H {+w+6+q.q.q.#.! ! ; + + > 8.j+w+r+R.v+v+R.r+w+s+R.2 + + + + + ; ! ! T b+w+{+j ! ! ! & + + * ' ' 1 S.C+C+",
"h > . . g #.#.#.#.#.#.e /.0+4+; ! ! ; + ; #.#.C ' U *+C+C+l+C+C+l+C+C+*+U > C #.#.#.! + + + % 9+0+/.* + + ! #.#.#.#.g . ' X.C+C+",
"k+F.> g a.q.C ! #.q.q.a.e /.!.. + . ! #.~.q.~.! + d U X.*+B+C+C+B+*+X.U _ + ! ! ! ~.~.#.#.#.L K./.* . ^ #.~.q.#.! C L = P *.]+C+",
"#+S u a.q.q.~.L ~.q.q.q.a.e 9 T T T ~.q.q.q.a.T i + 1 n X  + + +X.X D d + C T L L a.q.q.q.q.q.z * . ^ ~.q.q.q.~.L C [ M.i+k+8+ +",
"n ' #.q.q.q.q.q.C ! T q.q.~.~.q.q.q.q.q.q.q.q.q.a.i + _ _ _ _ _ _ _ _ + C a.q.q.q.g ! ~.q.q.q.~.L L ~.q.q.q.q.q.q.L $ =.:+D+A+f+",
"F ( #.q.q.q.q.q.#.C ~.q.q.q.q.q.q.q.q.q.q.q.q.q.q.a.L x x x x x x x x L q.q.q.q.q.#.C ~.q.q.q.q.q.q.q.q.q.q.q.q.q.~.| ( ].:+C+C+",
"_ * ! 4 ^ ~.q.q.q.q.q.q.q.q.q.#.^ 4 4 4 ^ C q.q.q.q.q.q.q.N.N.N.N.N.q.g 4 4 ~.q.q.q.q.q.q.q.q.q.L ^ 4 4 4 ^ L q.q.q.a.u a ].:+C+",
"a > . . . ! 4 4 #.q.q.q.#.4 4 ! . . . . . + 4 4 i q.q.q.a.k 4 4 4 4 ^ + . + ! 4 4 ~.q.q.q.C 4 4 ; . . . . . ; 4 4 C N.a.u a *.*+",
"3+6.> ^ C ; . . ! 4 4 4 ; . ! C C C C C C 4 . . + 4 4 4 ^ + + g i i i C C C + . . ! 4 | 4 & . ! C C C C C C ! . . & 4 4 ^ ' (.:+",
"(+/.e a.q.T i i i i i i i i #.q.q.q.q.q.q.~.i i i i i i i i C q.q.q.q.q.q.q.C i i b b j a a 9 ~.q.q.q.q.q.q.~.i i i i ^ > /.f+D+",
"n ' #.N.q.q.N.q.q.#.k k #.q.A.i.H.q.q.q.q.q.q.q.q.q.q.q.q.q.q.q.q.q.q.q.q.q.q.q.q.L.i.;.q F 3.j.q.q.q.q.q.q.q.q.N.q.~.^ ' J.(+(+",
"n ' 4 i ~.N.L ~.N.#.k k #.q.o.w.=+9.x.x.9.i.L.q.z.9.i.o.q.q.q.q.q.q.q.q.h.i.9.x.x.;.q #+J.r  +&+q.#.g i g #.N.~.L N.~.2 e.(+$+r ",
"(+!.$ . ^ p 3 9 b b C C i b Y '+u+X.F F J.#+@.9.c.*.'+>+x.9.9.9.9.9.9.9.@.*+*.F F q  +u+$+X.u+6+K f '   . ; p 9 3 b b G X.D+y+(+",
"1+J.0 1 * ( Z.6.1 d > . = 1 c ]+D+f+J. + +z+ +].]+1+C+y+].*+*.]+]+*.]+]+J.q+1+J. +]+u+D+ +c+D+/+[ G.G.1 d ' > 6.Z.1 1 0 J.f+C+D+",
"*+]+J. +!.m e+e+J.o I _ C.'+]+f+u+(+c+k+X.D+x+1+C+D+B+1+(+x+J.A+B+(+8+A+J.q+C+1+x+D+D+k+]+t+l+K.h <+i+J.J.G.8 ]+q+S.J.]+]+]+f+C+"};
