/* XPM */
static char * exit_xpm[] = {
"64 64 255 2",
"  	c #121517",
". 	c #131618",
"+ 	c #16191B",
"@ 	c #1A1D1F",
"# 	c #1C2022",
"$ 	c #1F2224",
"% 	c #1E242A",
"& 	c #202426",
"* 	c #21262D",
"= 	c #22282E",
"- 	c #23292F",
"; 	c #252B32",
"> 	c #262C32",
", 	c #272D33",
"' 	c #282E34",
") 	c #292F35",
"! 	c #2B3137",
"~ 	c #2D3339",
"{ 	c #2F353B",
"] 	c #30353C",
"^ 	c #32383F",
"/ 	c #343A40",
"( 	c #353B41",
"_ 	c #373D44",
": 	c #333F45",
"< 	c #344046",
"[ 	c #354147",
"} 	c #3B4148",
"| 	c #364348",
"1 	c #3D4349",
"2 	c #3D434A",
"3 	c #38454A",
"4 	c #3E444B",
"5 	c #3B484D",
"6 	c #42484F",
"7 	c #3D4A50",
"8 	c #444A51",
"9 	c #3F4C52",
"0 	c #4B5158",
"a 	c #465358",
"b 	c #4B585E",
"c 	c #4A5964",
"d 	c #4B5A65",
"e 	c #4C5C67",
"f 	c #4D5D68",
"g 	c #4E5E69",
"h 	c #4F5F6A",
"i 	c #50606B",
"j 	c #55656F",
"k 	c #5D6A70",
"l 	c #5E6B71",
"m 	c #666D74",
"n 	c #9E6346",
"o 	c #9A6546",
"p 	c #9F6447",
"q 	c #A06548",
"r 	c #976846",
"s 	c #9C6747",
"t 	c #8F6C46",
"u 	c #9D6848",
"v 	c #986A47",
"w 	c #996A48",
"x 	c #906D47",
"y 	c #946C47",
"z 	c #9E6949",
"A 	c #916E48",
"B 	c #9F6A4A",
"C 	c #966D49",
"D 	c #8D7047",
"E 	c #69777D",
"F 	c #887247",
"G 	c #926F49",
"H 	c #8E7143",
"I 	c #847447",
"J 	c #976E4A",
"K 	c #8E7148",
"L 	c #A16B4B",
"M 	c #6A787E",
"N 	c #807647",
"O 	c #9C6D4B",
"P 	c #75794D",
"Q 	c #93704A",
"R 	c #7B7847",
"S 	c #A26C46",
"T 	c #707B4D",
"U 	c #857548",
"V 	c #8F7249",
"W 	c #A26C4C",
"X 	c #9E6E46",
"Y 	c #8A7449",
"Z 	c #777A48",
"` 	c #9D6E4C",
" .	c #588449",
"..	c #50864F",
"+.	c #528649",
"@.	c #57844F",
"#.	c #867649",
"$.	c #99704B",
"%.	c #6E7E48",
"&.	c #9F6F47",
"*.	c #95724B",
"=.	c #82784A",
"-.	c #9F6F4D",
";.	c #737D49",
">.	c #59854A",
",.	c #887744",
"'.	c #A46E48",
").	c #53874A",
"!.	c #6A8049",
"~.	c #A36E4D",
"{.	c #87774A",
"].	c #727980",
"^.	c #91744B",
"/.	c #5F844A",
"(.	c #A07048",
"_.	c #8C764B",
":.	c #7A7C4A",
"<.	c #A0704E",
"[.	c #5A864B",
"}.	c #7E7B4A",
"|.	c #54884B",
"1.	c #807B45",
"2.	c #9B724D",
"3.	c #66834B",
"4.	c #7B7D45",
"5.	c #97744D",
"6.	c #61854B",
"7.	c #A27149",
"8.	c #6B824A",
"9.	c #A1714F",
"0.	c #5B874C",
"a.	c #55894C",
"b.	c #9D7349",
"c.	c #7D7E46",
"d.	c #A3724A",
"e.	c #8F784D",
"f.	c #568A4C",
"g.	c #967742",
"h.	c #788046",
"i.	c #5E8847",
"j.	c #9E744A",
"k.	c #77804C",
"l.	c #67854C",
"m.	c #917942",
"n.	c #8B7A4D",
"o.	c #887C41",
"p.	c #72824C",
"q.	c #648746",
"r.	c #63874D",
"s.	c #A4734B",
"t.	c #6D844C",
"u.	c #7D7F4D",
"v.	c #877C4E",
"w.	c #5F8948",
"x.	c #967849",
"y.	c #827E4D",
"z.	c #95784F",
"A.	c #748347",
"B.	c #9B774A",
"C.	c #6F8547",
"D.	c #7F8048",
"E.	c #9A7750",
"F.	c #A5744C",
"G.	c #608A49",
"H.	c #A0764B",
"I.	c #7C8242",
"J.	c #548E49",
"K.	c #837F4E",
"L.	c #967950",
"M.	c #927B4A",
"N.	c #668949",
"O.	c #927B50",
"P.	c #5A8D49",
"Q.	c #8D7D4F",
"R.	c #6C8849",
"S.	c #A2774C",
"T.	c #8A7F4A",
"U.	c #718749",
"V.	c #738743",
"W.	c #5B8E4A",
"X.	c #5D8E44",
"Y.	c #86814A",
"Z.	c #648D45",
"`.	c #5E8F45",
" +	c #7D854B",
".+	c #6F8A45",
"++	c #6A8C45",
"@+	c #5F9046",
"#+	c #908241",
"$+	c #609147",
"%+	c #629140",
"&+	c #8F8348",
"*+	c #699041",
"=+	c #639241",
"-+	c #728D48",
";+	c #89873C",
">+	c #7E848C",
",+	c #9A8149",
"'+	c #5E9543",
")+	c #928544",
"!+	c #848A43",
"~+	c #758F43",
"{+	c #659443",
"]+	c #868B3D",
"^+	c #67953E",
"/+	c #91893F",
"(+	c #68963F",
"_+	c #878D46",
":+	c #699740",
"<+	c #649940",
"[+	c #8A8E3A",
"}+	c #938B41",
"|+	c #659A3A",
"1+	c #928B47",
"2+	c #6A9841",
"3+	c #8F8D42",
"4+	c #848A92",
"5+	c #6C993B",
"6+	c #87913B",
"7+	c #679B3B",
"8+	c #8B9042",
"9+	c #6D9A3C",
"0+	c #6E9B3D",
"a+	c #6A9D36",
"b+	c #89933D",
"c+	c #699D3D",
"d+	c #819736",
"e+	c #6F9C3E",
"f+	c #6B9E37",
"g+	c #80973E",
"h+	c #6C9F38",
"i+	c #729E38",
"j+	c #898F97",
"k+	c #839938",
"l+	c #6FA031",
"m+	c #6DA039",
"n+	c #70A132",
"o+	c #71A233",
"p+	c #74A42D",
"q+	c #72A435",
"r+	c #8E959D",
"s+	c #93989A",
"t+	c #94999B",
"u+	c #959A9C",
"v+	c #979EA6",
"w+	c #A4AAB3",
"x+	c #A5ACB4",
"y+	c #A6ADB5",
"z+	c #A7AEB6",
"A+	c #ACB3BB",
"B+	c #B2B9C2",
"C+	c #B3BAC3",
"D+	c #B6BABD",
"E+	c #B7BBBE",
"F+	c #C5C9CC",
"q+q+q+q+n+@+:+q+{+|.2+p+o+(+{+o+q+o+5+=+q+q+q+f+`.l+q+a+`.n+i+X.n+h+W.P.h+q+q+q+@+9+o+q+n+o+q+q+q+o+{+(+p+o+(+@+o+9+).%+o+n+q+q+",
"n+o+q+o+%+>.6.5+=+^+q+o+^+{+:+^+q+5+{+o+q+o+n+q+c+`.a+X.l+l+X.h+n+X.f+n+q+q+n+o+n+@+e+o+{+0+o+n+n+{+^+o+q+:+[./.*+2+@+n+0+@+n+q+",
"P.c+n+$+>.F r :.>.(+o+(+/./.{+o+5+=+o+o+n+0+@+o+f+|.a.P.l+l+P.n+m+P.m+q+n+n+@+c+q+`.9+%+5+q+{+i.q.[.(+q+:+[.Z r {.[.Z.0+P.P.%+n+",
"m+@+i.[.F &.s.O r :.i.}.r r ;+q+:+%+q+0+P.P.|.@+c+>./.>.Z.i+P.f+P.a.f+n+`.P.|.P.c+`.a.|.5+q+=+N r R ^+(+[.Z O s.-.r F Z.h+l+e+P.",
"n+Z.F r (.s.F.s.B r y ` d.d./+7+a.%+0+P.>.>.>.[.i.!.y y A q.>.i.>.).P.P.|.>.>.>.i.[.>.>.0.9+=+n.s.O c.c.r O s.F.F.-.o U %+o+o+m+",
"w.F &.d.s.F.F.F.s.d.d.s.F.F.T.P.).a.i.>.%.y y y y C d.d.7.C y x /.>.>.>./.D y y y y y y y h.a.n.F.s.O O d.d.F.F.F.s.W D [.%+o+q+",
"y o s u u <.F.F.F.F.F.F.F.s.S.y.>.>.;.y r z d.d.d.d.F.F.F.d.7.s y y y y y o &.d.d.d.d.d.d.J y r u u o o u u W F.F.F.s.-.F [.%+o+",
"!.x o o o s u u (.F.F.F.-.u u w y y r o o o u u B s.F.F.d.z u o o o o o o o u u u 7.F.F.F.B n o o o o o o o o u u ` F.s.-.F [.P.",
"a+R.5.d.d.z o o s z z z s o B d.d.d.d.d.d.-.o o o z z z u o o 7.d.d.d.d.d.7.u o o u z z z s o ` d.d.d.d.d.d.` o o o z z s x P.a+",
"X.,.b.F.F.d.7.7.7.7.7.7.7.7.d.F.F.F.F.F.F.s.7.7.7.7.7.7.7.7.d.F.F.F.F.F.F.F.d.7.7.7.7.7.7.7.7.s.F.F.F.F.F.F.s.7.7.7.7.X t R.f+q+",
" .x 7.F.F.F.F.F.F.-.z z -.F.F.F.F.F.F.F.F.F.F.F.F.F.F.F.F.F.F.F.F.F.F.F.F.F.F.F.F.F.` z z 7.F.F.F.F.F.F.F.F.F.F.F.F.7.u D a.`.X.",
">.x u z 7.F.F.F.F.d.7.7.d.F.F.F.F.7.z z ` F.F.F.F.F.F.F.F.F.F.F.F.F.F.F.F.F.F.F.F.F.d.7.7.s.F.F.F.-.z z z -.F.F.F.F.s.*.R.c+:+).",
"D r o o u z 7.-.<.F.F.(.z z &.7.z u o o o z ` F.F.d.z z z z z z z z z z d.F.F.F.` d.F.F.X z 7.-.z s o o o s z -.7.X F.O.`.q+o+0+",
"n o W <.<.(.d.d.d.F.F.d.B D #.u n z <.<.<.(.7.F.d.z r ;.;.;.;.;.;.;.;.r z d.F.F.7.s.F.F.d.(.s.n.D L 7.<.<.<.(.d.d.7.F.j.Y.^+q+q+",
";.y 7.F.F.F.F.F.F.F.F.(.I a 0 0 0 0 0 0 0 0 0 0 0 8 8 7 9 a a a a 9 9 8 8 0 0 0 0 0 0 0 0 0 0 0 9 0 t S.F.F.F.F.F.F.F.F.z.a.^+q+",
").x '.F.F.-.B B B B B Y  .>+z+y+v+w+z+w+u+w+v+v+z+z+z+w+u+x+z+v+v+x+u+w+z+z+z+v+v+w+u+w+z+z+w+u+w+>+N (.F.F.7.B B B B W z.P.:+%+",
" .%.:.u.*.o n n n o n t R 4+E+C+z+A+C+B+y+D+A+z+C+C+C+A+z+C+C+A+z+D+z+A+C+C+C+z+A+D+y+B+C+C+B+y+D+4+I W B L u n n t I.6+g+:+{+2+",
"2+2+<+P._.W -.-.-.z n n t >+y+w+x+x+w+w+x+x+x+x+w+w+w+x+x+w+w+x+x+w+x+x+w+w+w+x+x+x+x+w+w+w+w+x+y+>+t u n z -.&.*.%.P.<+p+n+9+q+",
"p+p+5+ +B.F.(.L d.7.-.-.t >+z+x+y+y+y+x+x+x+y+y+y+y+y+y+x+x+y+y+y+x+x+y+y+y+y+y+y+x+x+x+y+y+y+y+z+>+t z -.7.S.7.{.).+.P.{+:+p+q+",
"{+{+P.O.F.F.<.W d.S.F.F.t r+E+z+E+F+E+z+E+A+D+F+F+F+A+A+E+z+E+F+E+z+E+A+A+F+F+F+D+A+E+z+E+F+F+F+A+>+t 7.F.F.F.d.{.+.P.:+(+^+2+q+",
"(+P.).O.F.F.F.F.<.` 7.F.t m j+>+j+r+j+>+j+4+4+r+r+r+4+4+j+>+j+r+j+>+j+4+4+r+r+r+4+4+r+>+j+r+r+r+4+k t F.F.F.F.F.E.k.P.9+p+l+^+^+",
"(+P.).O.F.F.F.F.<.L 7.F.t 5 d a d b a b d b b c a a a b d a a b c a d b a a d b a a a d b b d a a 1 t F.F.F.F.F.F.O.+.P.9+q+l+^+",
"{+{+P.^.S d.F.F.F.F.F.F.t 4 b 3 b 8 } 4 b 6 8 b } } } 8 b 1 } 8 b 3 b 8 } 4 c 6 } } 1 b 8 8 b } } ^ t X X X 7.F.F.E.k.+.`.q+q+p+",
"p+0+P.D n B -.-.d.F.F.F.t ) ! ) ~ ! ) ) ! ! ! ! ) ) ) ! ~ ) ) ! ! ) ~ ! ) ) ~ ! ) ) ) ~ ! ! ~ ) ) ) t n n n z -.-.(.O.).P.9+q+q+",
":+P.).V S s n n z -.-.-.z t ^ a a a a a ! $ @ @ @ @ @ @ @ @ @ @ @ @ @ @ @ @ @ @ @ $ ! a a a a a ^ t L L L L z n n s _.).P.(+q+q+",
"%+P.).O.F.-.B B B B L L B u ( g k k j c ~ @ . . . . . . . . . . . . . . . . . . . @ ~ c j k k g ( 7.F.F.F.F.7.B B L _.P.:+p+n+2+",
"q+X.+.K.B.F.F.F.F.d.-.-.d.7.( h E E m c ~ @ . . . . . . . . . . . . . . . . . . . @ ~ c m E E h ( 7.F.F.F.F.F.F.F.F.O.P.9+5+:+%+",
"q+^+a.).M.F.F.F.F.-.z z (.7.( h m E l c ~ @ . . . . . . . . . . . . . . . . . . . @ ~ c l E m h ( (.(.(.(.d.F.F.F.F.M.).P.@+^+q+",
"q+q+(+P.y.b.d.d.d.F.F.d.<.` ( h m E l c ~ @ . . . . . . . . . . . . . . . . . . . @ ~ c l E m h ( s n o n z <.d.d.7.M.).P.a+q+q+",
"0+0+0+W.).Y 7.-.<.F.F.(.s r ( h m E l c ~ @ . . . . . . . . . . . . . . . . . . . @ ~ c l E m h ( o z z z z z -.7.S O.f.@+=+a+q+",
"`.`.a.).).O.F.F.F.F.F.s.J h.( h m E l c ~ @ . . . . . . . . . . . . . . . . . . . @ ~ c l E m h ( y s.F.F.F.F.F.F.j.Y.^+p+f+{+q+",
"q+q+{+a.3.z.7.7.7.7.7.J c.=+( h m E l c ~ @ . . . . . . . . . . . . . . . . . . . @ ~ c l E m h ( 4.J s.F.F.s.7.7.e.X.c+c+f+q+q+",
"a+a+a+W.e.z o o o o n N {+n+( h m E l c ~ @ . . . . . . . . . . . . . . . . . . . @ ~ c l E m h ( X.N L d.d.` o n F f.X.X.%+f+q+",
"W.W.X.a.Y u u u u u u #.*+l+( h m E l c ~ @ . . . . . . . . . . . . . . . . . . . @ ~ c l E m h ( *+F n o s z u w N X.h+q+f+{+q+",
"q+o+h+++z.F.d.d.s.F.F.-.#.*+( h m E l c ~ @ . . . . . . . . . . . . . . . . . . . @ ~ c l E m h ( F o o u X F.s.e.).).`.f+h+q+q+",
"h+h+X.M.F.F.` u (.F.F.F.-.I ( h m E l c ~ @ . . . . . . . . . . . . . . . . . . . @ ~ c l E m h ( o o -.F.F.F.(.Y ).a.P.P.%+m+q+",
"P.P.).O.F.F.F.s.d.d.s.F.F.O ( h m E l c ~ @ . . . . . . . . . . . . . . . . . . . @ ~ c l E m h ( o -.F.F.F.F.F.O./.`.h+o+a+%+h+",
"f+W.).O.F.F.F.F.X s -.F.F.7.( h m E l c ~ @ . . . . . . . . . . . . . . . . . . . @ ~ c l E m h ( (.F.F.F.F.F.F.F.Q.).@+n+q+a+P.",
"P.P.|.e.s.s.F.F.s.s.F.F.F.7.( h m E l c ~ @ . . . . . . . . . . . . . . . . . . . @ ~ c l E m h ( (.d.d.d.d.s.F.F.O./.).@+q+q+n+",
"n+h+W.D o -.s.s.s.F.F.F.s.(.( h m E l c ~ @ . . . . . . . . . . . . . . . . . . . @ ~ c l E m h ( o o o o o L s.s.s.Q.).X.n+q+q+",
"n+@+).K o o o o -.s.s.s.X o ( h m E l c ~ @ . . . . . . . . . . . . . . . . . . . @ ~ c l E m h ( o o o o o o o o B O.).|.=+q+q+",
"P.[.).e.s.B o o s u u u s o ( h m E l c ~ @ . . . . . . . . . . . . . . . . . . . @ ~ c l E m h ( (.s.s.s.s.-.o o q K ).@+n+q+n+",
"m+X.).O.F.s.d.d.d.d.d.d.d.(.( h m E l c ~ @ . . . . . . . . . . . . . . . . . . . @ ~ c l E m h ( 7.F.F.F.F.s.d.d.s.e.X.h+o+a+P.",
"q+@+).6.M.F.F.F.F.X u u -.7.( h m E l c ~ @ . . . @ @ @ @ @ @ @ @ @ @ @ @ @ . . . @ ~ c l E m h ( 7.F.s.s.F.F.F.F.F.M.|.P.P.$+h+",
"q+l+`.).O.F.F.F.F.s.d.d.d.7.( h m E l c ~ @ . . + $ $ $ $ $ $ $ $ $ $ $ $ $ + . . @ ~ c l E m h ( 7.X s s W F.F.F.F.M.).W.f+l+q+",
"o+o+h+X./.V (.W (.F.F.-.u O ( h m E l c ~ @ . @ & & & & & & & & & & & & & & & @ . @ ~ c l E m h ( o s o o s u X 7.L M.).a.=+o+q+",
"W.W.P.a.).e.s.d.s.F.F.s.d.(.( h m E l c ~ @ $ > > > > > > > > > > > > > > > > > $ @ ~ c l E m h ( o L d.d.d.d.d.s.s.O.X.f+9+=+q+",
"f+a+W.).).O.F.F.F.F.F.F.F.7.( h E E m c ~ - - ' ' ' ' ' ' ' ' ' ' ' ' ' ' ' ' ' - - ~ c m E E h ( (.s.F.F.F.F.F.F.z.++h+q+n+h+q+",
"q+q+i+X.v.O z z z u (.F.F.j.( g l l k c ! ' ) ! ! ! ! ! ! ! ! ! ! ! ! ! ! ! ! ! ) ' ! c k l l g ( 7.F.F.F.F.<.z u Y a.X.W.{+q+q+",
"m.m.g.H O o o o o o s {.~+!.8 c f d c b 0 ) ~ ^ ^ ^ ^ ^ ^ ^ ^ ^ ^ ^ ^ ^ ^ ^ ^ ^ ~ ) 8 b e e c d 8  .Y z z z s o o r x x I X.q+q+",
"%.y n n W 7.7.7.7.7.7.J h.7+]+6 f 0 6 0 s t _ _ _ ( ( _ _ _ _ _ _ _ _ ( ( _ _ _ _ t u 0 b b 6 6 |+h.r o o z 7.7.7.7.W n x `.q+q+",
"0+C.y W s.F.-.z 7.F.F.s.J h.c.t o n z t d.y 7.z o U [.`.=+o+q+q+o+=+`.[.F o z z u y d.t 7.7.(.T h.r n B 7.d.F.7.z -.(.t !.a.{+q+",
"$+1.$.s.F.F.d.(.d.F.F.F.s.J Q <.<.<.d.F.F.F.s.<.X o I  .|.@+@+@+`.|.>.U o -.<.(.(.s.F.F.F.F.F.*.r n B d.F.F.F.d.(.-.G R.7+0+2+@+",
" .x 7.F.F.F.F.F.-.z <.F.F.d.d.F.F.F.F.F.F.F.F.F.s.X o F F F F F F F F o -.s.F.F.F.W z d.F.F.F.d.(.(.d.F.F.F.F.F.F.(.r 1.(+p+n+9+",
").D 7.F.F.F.F.F.7.-.d.F.F.F.F.F.F.F.F.F.F.F.F.F.F.s.(.&.&.&.&.&.&.&.&.(.F.F.F.F.F.7.-.d.F.F.F.F.F.F.F.F.F.F.F.F.F.d.S D f.(+q+q+",
"F r z L B d.F.F.F.F.F.F.F.F.F.7.B L L L B -.F.F.F.F.F.F.F.S.S.S.S.S.F.W L L d.F.F.F.F.F.F.F.F.F.(.B L L L B (.F.F.F.s.$.R f.(+q+",
"R y n n n z L L 7.F.F.F.7.L L z n n n n n o L L X F.F.F.s.` L L L L B o n o z L L d.F.F.F.-.L L u n n n n n u L L -.S.s.$.R a.=+",
"<+A.y B -.u n n z L L L u n z -.-.-.-.-.-.L n n o L L L B o o W X X X -.-.-.o n n z L S L s n z -.-.-.-.-.-.z n n s L L B x i.(+",
"^+h.J s.F.<.X X X X X X X X 7.F.F.F.F.F.F.d.X X X X X X X X -.F.F.F.F.F.F.F.-.X X S S Y R R Q d.F.F.F.F.F.F.d.X X X X B y h.9+p+",
" .x 7.S.F.F.S.F.F.7.` ` 7.F.L.y.O.F.F.F.F.F.F.F.F.F.F.F.F.F.F.F.F.F.F.F.F.F.F.F.F.Q.y.3.+.).p.z.F.F.F.F.F.F.F.F.S.F.d.B x P.^+^+",
" .x L X d.S.(.d.S.7.` ` 7.F.v.J.-+v.K.K.v.y.Q.F.S.v.y.v.F.F.F.F.F.F.F.F.n.y.v.K.K.3.+.$+P.@.@+&+F.7.W X W 7.S.d.(.S.d.J h.^+%+@.",
"^+c.r n B S K Q S S -.-.X S {.'+h+`.).).P.$+6.v.u.a.'+*+K.v.v.v.v.v.v.v.6.=+a.).).+.@+h+%+`.h+}+~.V x n n u S Q K S S ^.`.p+l+^+",
":+P.Z I r D .+A.I U y n t I T {+p+9+P.@+@+m+@+f.{+:+q+l+f.=+a.{+{+a.{+{+P.f+:+P.@+{+h+p+@+5+p+/+G V.V.I U x y A..+I I Z P.9+q+p+",
"=+{+P.@+c.!.7+7+P...;.F A.'+{+9+h+^+5+0+`.p+i+:+q+p+o+:+^+i+P.n+o+^+2+n+P.f+q+:+i+p+p+0+{+i+a+I.%.<+7+P.P.V.P {+f+X.P.{+{+{+9+q+"};
