/* XPM */
static char * exit_xpm[] = {
"64 64 616 2",
"  	c None",
". 	c #2B8FD8",
"+ 	c #2890DA",
"@ 	c #2690D9",
"# 	c #2690D8",
"$ 	c #288ED6",
"% 	c #2A8FD5",
"& 	c #2690DB",
"* 	c #2791DB",
"= 	c #2790DA",
"- 	c #2991DB",
"; 	c #278ED7",
"> 	c #2890D9",
", 	c #2A91DB",
"' 	c #2890D8",
") 	c #2A91DA",
"! 	c #2691DB",
"~ 	c #2891DB",
"{ 	c #298FD6",
"] 	c #1C75B5",
"^ 	c #1D74B3",
"/ 	c #2A8FD6",
"( 	c #2990DA",
"_ 	c #2590DA",
": 	c #268ED7",
"< 	c #1F73AC",
"[ 	c #2173AB",
"} 	c #1E73AD",
"| 	c #1F73B1",
"1 	c #1E75B5",
"2 	c #2691DA",
"3 	c #2A90D9",
"4 	c #2073AF",
"5 	c #2372AC",
"6 	c #2372AA",
"7 	c #1F72AC",
"8 	c #1E73AE",
"9 	c #2073AD",
"0 	c #2172AF",
"a 	c #1E74B1",
"b 	c #2B8FD7",
"c 	c #2F9DED",
"d 	c #2F9EED",
"e 	c #1F75B3",
"f 	c #2272AD",
"g 	c #1F71AA",
"h 	c #2171AB",
"i 	c #1D73AF",
"j 	c #1E74AD",
"k 	c #1F73AE",
"l 	c #2072AE",
"m 	c #2172AD",
"n 	c #2072AA",
"o 	c #125A8C",
"p 	c #2A8ED5",
"q 	c #2E9EEF",
"r 	c #1E74B4",
"s 	c #1F72B0",
"t 	c #1973AC",
"u 	c #1E73AA",
"v 	c #2071AD",
"w 	c #2072AF",
"x 	c #1F72AF",
"y 	c #1873AF",
"z 	c #1E72AD",
"A 	c #2370A8",
"B 	c #175887",
"C 	c #195783",
"D 	c #165B8D",
"E 	c #2E9CEC",
"F 	c #2A9EF1",
"G 	c #2590DB",
"H 	c #1C74B1",
"I 	c #1F72AE",
"J 	c #2074AE",
"K 	c #2072AC",
"L 	c #1D72AF",
"M 	c #1F72AA",
"N 	c #195987",
"O 	c #1A5784",
"P 	c #1A5884",
"Q 	c #185887",
"R 	c #1C75B3",
"S 	c #1D73AE",
"T 	c #1B74AE",
"U 	c #2071A9",
"V 	c #195986",
"W 	c #1B5782",
"X 	c #1A5783",
"Y 	c #195683",
"Z 	c #175989",
"` 	c #298ED6",
" .	c #2F9EEE",
"..	c #2172AE",
"+.	c #1973AF",
"@.	c #1F71AB",
"#.	c #1D73B0",
"$.	c #2070AB",
"%.	c #165888",
"&.	c #195682",
"*.	c #165683",
"=.	c #175683",
"-.	c #155A8B",
";.	c #2C9DED",
">.	c #2790D9",
",.	c #145989",
"'.	c #1B72AD",
").	c #1E72AB",
"!.	c #185683",
"~.	c #185682",
"{.	c #185581",
"].	c #0F4971",
"^.	c #175681",
"/.	c #185885",
"(.	c #2D9DED",
"_.	c #2F9DEC",
":.	c #175B8B",
"<.	c #2171AD",
"[.	c #2B8CCE",
"}.	c #1D73AD",
"|.	c #145889",
"1.	c #155886",
"2.	c #185886",
"3.	c #1A5781",
"4.	c #195681",
"5.	c #104970",
"6.	c #154770",
"7.	c #17476E",
"8.	c #17476F",
"9.	c #104971",
"0.	c #288DD5",
"a.	c #2E9EEE",
"b.	c #298FD8",
"c.	c #2372AD",
"d.	c #2173AD",
"e.	c #2172AC",
"f.	c #1F73AF",
"g.	c #1F74AE",
"h.	c #155B8B",
"i.	c #2C8DD4",
"j.	c #165885",
"k.	c #1B5682",
"l.	c #185680",
"m.	c #13486E",
"n.	c #0B466D",
"o.	c #11466C",
"p.	c #15456C",
"q.	c #15466B",
"r.	c #11466A",
"s.	c #0F4B74",
"t.	c #2E9DEB",
"u.	c #2B8FD5",
"v.	c #1F72AD",
"w.	c #2173AC",
"x.	c #1E74AE",
"y.	c #1B74B1",
"z.	c #2A9FEB",
"A.	c #319BE6",
"B.	c #155984",
"C.	c #1C5681",
"D.	c #10486F",
"E.	c #15466D",
"F.	c #0E466C",
"G.	c #0B466C",
"H.	c #14466C",
"I.	c #113B5C",
"J.	c #0F3B5A",
"K.	c #103D5E",
"L.	c #309BE9",
"M.	c #165784",
"N.	c #2171AA",
"O.	c #2A8DD2",
"P.	c #2072AD",
"Q.	c #1D75B3",
"R.	c #2590DC",
"S.	c #2C9EEE",
"T.	c #2F9CE6",
"U.	c #175A8D",
"V.	c #1B5781",
"W.	c #195580",
"X.	c #0F476D",
"Y.	c #12466C",
"Z.	c #0A466C",
"`.	c #15456B",
" +	c #123C5B",
".+	c #113B59",
"++	c #123B57",
"@+	c #0C3E5E",
"#+	c #309BE7",
"$+	c #145986",
"%+	c #1F71A9",
"&+	c #1F73B0",
"*+	c #288FD7",
"=+	c #2D9FEE",
"-+	c #2F9BE7",
";+	c #165B8C",
">+	c #1A5682",
",+	c #13486F",
"'+	c #0E476D",
")+	c #13466C",
"!+	c #103C5B",
"~+	c #0C3C59",
"{+	c #0F3B57",
"]+	c #113B57",
"^+	c #0E3E5D",
"/+	c #2B8DD1",
"(+	c #155780",
"_+	c #195782",
":+	c #165680",
"<+	c #165985",
"[+	c #1E73AC",
"}+	c #2B90D9",
"|+	c #1F73AB",
"1+	c #1D74AD",
"2+	c #1C75B1",
"3+	c #2591DC",
"4+	c #2E9DEC",
"5+	c #185782",
"6+	c #1A5782",
"7+	c #1B5681",
"8+	c #09476D",
"9+	c #0B466B",
"0+	c #14466B",
"a+	c #0F3B58",
"b+	c #103C58",
"c+	c #133B57",
"d+	c #0E3D5D",
"e+	c #0C3C5C",
"f+	c #175783",
"g+	c #2690D7",
"h+	c #268FD7",
"i+	c #2071AB",
"j+	c #2073B0",
"k+	c #278FD7",
"l+	c #309EED",
"m+	c #2E9CEB",
"n+	c #155887",
"o+	c #154870",
"p+	c #10466D",
"q+	c #08466C",
"r+	c #0A466B",
"s+	c #103B59",
"t+	c #133957",
"u+	c #113A57",
"v+	c #113A59",
"w+	c #1A5680",
"x+	c #175784",
"y+	c #2171A9",
"z+	c #1C75AE",
"A+	c #2791D7",
"B+	c #1C71AB",
"C+	c #319EEE",
"D+	c #175886",
"E+	c #1A5580",
"F+	c #14466D",
"G+	c #113C5C",
"H+	c #103B58",
"I+	c #133A57",
"J+	c #0A2C44",
"K+	c #0C2B42",
"L+	c #0C2B43",
"M+	c #0B2D45",
"N+	c #1A5681",
"O+	c #2172AA",
"P+	c #1C74AE",
"Q+	c #298FD9",
"R+	c #248FD8",
"S+	c #1D72AC",
"T+	c #309DEA",
"U+	c #185A8B",
"V+	c #165783",
"W+	c #1A557E",
"X+	c #14476E",
"Y+	c #09466C",
"Z+	c #0D466B",
"`+	c #0B2C44",
" @	c #0C2B41",
".@	c #0D2B41",
"+@	c #195886",
"@@	c #1E73AB",
"#@	c #1D74B0",
"$@	c #2C8FD8",
"%@	c #268FD8",
"&@	c #1F73AA",
"*@	c #2075B0",
"=@	c #2D9DEA",
"-@	c #2A8ED4",
";@	c #145885",
">@	c #185783",
",@	c #0F496F",
"'@	c #0E466B",
")@	c #0D3956",
"!@	c #0D2C43",
"~@	c #0B2B42",
"{@	c #0C2C43",
"]@	c #2273AC",
"^@	c #1E74B0",
"/@	c #2A8FD8",
"(@	c #278FD8",
"_@	c #2790D8",
":@	c #2E9EEB",
"<@	c #165B8A",
"[@	c #175781",
"}@	c #16476E",
"|@	c #1A466D",
"1@	c #0D466C",
"2@	c #123A55",
"3@	c #0A2C43",
"4@	c #0D2B40",
"5@	c #0D2A3F",
"6@	c #051E31",
"7@	c #1A537C",
"8@	c #2272AC",
"9@	c #2A90D8",
"0@	c #278ED8",
"a@	c #1F74B2",
"b@	c #2D9DEE",
"c@	c #185986",
"d@	c #0F486E",
"e@	c #11456B",
"f@	c #103B5B",
"g@	c #153955",
"h@	c #0C2A42",
"i@	c #0E2A3E",
"j@	c #051C2B",
"k@	c #071B2C",
"l@	c #061F33",
"m@	c #195884",
"n@	c #1D74B2",
"o@	c #258FD8",
"p@	c #288FD8",
"q@	c #2E9FEF",
"r@	c #309BE8",
"s@	c #175986",
"t@	c #10476E",
"u@	c #113B5A",
"v@	c #163955",
"w@	c #051C2E",
"x@	c #071B28",
"y@	c #091C2A",
"z@	c #051D2E",
"A@	c #1B557E",
"B@	c #1E73B0",
"C@	c #248FD9",
"D@	c #2D9DEC",
"E@	c #2E9CE9",
"F@	c #135B8B",
"G@	c #11476E",
"H@	c #0E466A",
"I@	c #113C5A",
"J@	c #113B56",
"K@	c #0E2B41",
"L@	c #0E2B40",
"M@	c #081C2A",
"N@	c #081C29",
"O@	c #061D2E",
"P@	c #1D557E",
"Q@	c #238FDA",
"R@	c #2790D7",
"S@	c #2990D8",
"T@	c #2D9EEF",
"U@	c #2990D7",
"V@	c #195885",
"W@	c #165682",
"X@	c #0F476E",
"Y@	c #0A476D",
"Z@	c #0D2A41",
"`@	c #061E2E",
" #	c #1C557E",
".#	c #288FD9",
"+#	c #309EEE",
"@#	c #1F74B4",
"##	c #0F466A",
"$#	c #103B5A",
"%#	c #081B28",
"&#	c #071F31",
"*#	c #2A8FD7",
"=#	c #309DEC",
"-#	c #185785",
";#	c #081C28",
">#	c #081E2C",
",#	c #1A537B",
"'#	c #175883",
")#	c #185784",
"!#	c #2B90D7",
"~#	c #298ED7",
"{#	c #2B90D8",
"]#	c #2173B0",
"^#	c #135785",
"/#	c #0E4669",
"(#	c #113A58",
"_#	c #113A55",
":#	c #0B2B41",
"<#	c #071B29",
"[#	c #081D2D",
"}#	c #19547F",
"|#	c #2075AF",
"1#	c #2C90D8",
"2#	c #2991D7",
"3#	c #1E75B1",
"4#	c #2371AE",
"5#	c #115685",
"6#	c #123B59",
"7#	c #133956",
"8#	c #0E2B42",
"9#	c #061B2A",
"0#	c #071D2C",
"a#	c #19557F",
"b#	c #175A86",
"c#	c #278ED5",
"d#	c #2A91D9",
"e#	c #278FD4",
"f#	c #1875B0",
"g#	c #2271AD",
"h#	c #135786",
"i#	c #0F3B59",
"j#	c #113C58",
"k#	c #123956",
"l#	c #0B2C42",
"m#	c #0C293F",
"n#	c #071C2B",
"o#	c #1A5986",
"p#	c #278ED6",
"q#	c #103B56",
"r#	c #0A2C42",
"s#	c #0D2C42",
"t#	c #185A88",
"u#	c #298FD7",
"v#	c #278FD6",
"w#	c #1475B2",
"x#	c #125685",
"y#	c #0D3A57",
"z#	c #0D2B42",
"A#	c #165886",
"B#	c #258FDA",
"C#	c #2A91D7",
"D#	c #1875B1",
"E#	c #1D72AD",
"F#	c #0A2D43",
"G#	c #18567F",
"H#	c #165986",
"I#	c #319DEB",
"J#	c #339DEB",
"K#	c #2471AA",
"L#	c #1974B1",
"M#	c #2272AE",
"N#	c #135887",
"O#	c #13476E",
"P#	c #0D3955",
"Q#	c #1C567F",
"R#	c #135988",
"S#	c #2074B0",
"T#	c #1975B1",
"U#	c #2271AB",
"V#	c #12456B",
"W#	c #0E3C5A",
"X#	c #123A58",
"Y#	c #0E3B58",
"Z#	c #1B567F",
"`#	c #155A8A",
" $	c #2D9BEA",
".$	c #1E73AF",
"+$	c #2073AE",
"@$	c #1B5885",
"#$	c #175680",
"$$	c #15476D",
"%$	c #19466D",
"&$	c #12456A",
"*$	c #103B57",
"=$	c #0E3C5B",
"-$	c #2F9BE8",
";$	c #2D9CEB",
">$	c #1A75B3",
",$	c #2891DA",
"'$	c #288ED8",
")$	c #2172AB",
"!$	c #2C8CD2",
"~$	c #165A8A",
"{$	c #18557F",
"]$	c #18476E",
"^$	c #0C466A",
"/$	c #0C3C5A",
"($	c #1D76B4",
"_$	c #1D73AC",
":$	c #2A8CD4",
"<$	c #2073AB",
"[$	c #135987",
"}$	c #2D8FD7",
"|$	c #2E9CEA",
"1$	c #309CE8",
"2$	c #11486E",
"3$	c #0C466B",
"4$	c #0E3C59",
"5$	c #2D9CEA",
"6$	c #2373AD",
"7$	c #298ED3",
"8$	c #165A88",
"9$	c #2A8DD4",
"0$	c #2992DC",
"a$	c #2B9CEC",
"b$	c #11466D",
"c$	c #0F3C5A",
"d$	c #309CE9",
"e$	c #2075B4",
"f$	c #298DD3",
"g$	c #1F74B0",
"h$	c #2370AA",
"i$	c #175B8D",
"j$	c #2D9DEB",
"k$	c #175B8C",
"l$	c #185780",
"m$	c #12476D",
"n$	c #0C466C",
"o$	c #0F456A",
"p$	c #195785",
"q$	c #2C9CE9",
"r$	c #2F9DEB",
"s$	c #1E72B0",
"t$	c #2074AF",
"u$	c #298ED4",
"v$	c #1F71AE",
"w$	c #195988",
"x$	c #2C8ED4",
"y$	c #2D9BE8",
"z$	c #11476F",
"A$	c #12466B",
"B$	c #0E3B5B",
"C$	c #155C8E",
"D$	c #2174AF",
"E$	c #1C72AF",
"F$	c #175B8A",
"G$	c #10476D",
"H$	c #0D466D",
"I$	c #13466D",
"J$	c #11456A",
"K$	c #0F3C5B",
"L$	c #0E3D5B",
"M$	c #135A8A",
"N$	c #2371AC",
"O$	c #288ED2",
"P$	c #1F75B0",
"Q$	c #185A89",
"R$	c #2B9DED",
"S$	c #145A87",
"T$	c #1B567E",
"U$	c #0C476D",
"V$	c #0E476B",
"W$	c #15476E",
"X$	c #13466E",
"Y$	c #165781",
"Z$	c #2271AA",
"`$	c #1E72AC",
" %	c #2171AC",
".%	c #175889",
"+%	c #2B9EEC",
"@%	c #2D8ED4",
"#%	c #14476F",
"$%	c #124870",
"%%	c #175582",
"&%	c #145888",
"*%	c #2072B0",
"=%	c #2372AB",
"-%	c #2591DB",
";%	c #175A8A",
">%	c #145780",
",%	c #0E4970",
"'%	c #175785",
")%	c #1B73AD",
"!%	c #1F73AD",
"~%	c #2D9EEE",
"{%	c #339BE8",
"]%	c #165B8B",
"^%	c #2470AB",
"/%	c #1B75B2",
"(%	c #2B8ED8",
"_%	c #155B89",
":%	c #185884",
"<%	c #2571AC",
"[%	c #1C73AE",
"}%	c #2690DC",
"|%	c #2D9EEA",
"1%	c #2B8ED4",
"2%	c #145A88",
"3%	c #2170A8",
"4%	c #2072AB",
"5%	c #2371AD",
"6%	c #2D9EE7",
"7%	c #1B74B0",
"8%	c #2B8FD6",
"9%	c #309DEB",
"0%	c #1B73B0",
"a%	c #2272AF",
"b%	c #1D72AE",
"c%	c #2E9BE6",
"d%	c #2D9AE8",
"e%	c #2075B2",
"f%	c #278FDA",
"g%	c #2175B3",
"h%	c #1B73AF",
"i%	c #2173AF",
"j%	c #2074AD",
"k%	c #2272AB",
"l%	c #288ED7",
"m%	c #2A90DB",
"n%	c #268FD4",
"o%	c #2073AA",
"p%	c #1E75B2",
"q%	c #2790DB",
"r%	c #2791DC",
"s%	c #2991DC",
"t%	c #2791DA",
"u%	c #268FD9",
"v%	c #2D8BD0",
"w%	c #288FD6",
"x%	c #2B8ED5",
"y%	c #298FD5",
"                                                                                                                                ",
"                                                                                                                                ",
"                                                                                                                                ",
"                                                                                                                                ",
"                                                  . + @ # @ @ $                                                                 ",
"                                                % & * * * * = - ;                                                               ",
"                                                > @ @ , ' ) ! * ~ { ]                                                           ",
"                                                        ^ / ( ! * _ : <                                                         ",
"                                                      [ } | 1 ; ! 2 3 4 5                                                       ",
"                                                  6 7 8 9 0 0 a b c d e f g                                                     ",
"                                                h i j k 8 l m n o p q > r s t u                                                 ",
"                                              v w x y 8 z 7 A B C D E F G H I J                                                 ",
"                                              K L x 9 M N O P O C Q > d E R S 0 T                                               ",
"                                              9 i i U V W C X X X Y Z `  .` ..+.x                                               ",
"                                            @.#.k $.%.&.&.C X X C *.=.-.;.>.,.'.w ).                                            ",
"                                            8 4 M Q !.~.&.&.X C {.].^./.(._.:.<.0 7                                             ",
"                                    [.      } }.|.1.2.3.&.~.4.5.6.7.8.9.0.a.b.c.l d.                                            ",
"                                          e.f.g.h.i.{ j.k.l.m.n.o.p.q.r.s.t.u.h.v.x w.                                          ",
"                                          x.y.; = z.A.B.C.D.E.F.G.H.I.J.K.L.-.M.N.< #.  O.                                      ",
"                                        P.} Q.R.S.T.U.V.W.X.Y.Z.`. +.+++@+#+$+Y Q %+j   %                                       ",
"                                        ..&+*+=+-+;+>+3.,+'+o.)+!+~+{+]+^+/+(+_+:+<+[+  }+*+                                    ",
"                                      |+1+2+3+4+:.5+6+7+X.8+9+0+a+b+b+c+]+d+e+>+f+/.f   g+h+                                    ",
"                                      i+j+k+l+m+n+6+7+o+p+q+r+`.s+b+]+t+u+v+J.w+x+y+z+  A+k+                                    ",
"                                      B+4 > C+*+D+C E+7.F+q+r+G+H+b+I+J+K+L+M+N+P O+w P+Q+R+                                    ",
"                                      S+4 = T+U+5+V+W+X+o.Y+Z+.+a+{+`+ @.@.@`+E+C +@@@#@$@%@                                    ",
"                                    &@m *@=@-@;@>@&.,@p+q+8+'@s+{+)@!@.@.@~@{@W.&.P ]@^@/@(@                                    ",
"                                      w _@:@<@[@>@C }@|@Y+1@'@H+2@3@4@.@.@5@6@7@C C 8@f.9@0@                                    ",
"                                      a@b@_.c@~.C C d@|@8+e@f@]+g@h@.@.@i@j@k@l@W+m@P.n@b.o@                                    ",
"                                      p@q@r@s@&.X C t@|@Y+'@u@]+v@K+.@.@w@x@y@z@A@_+B@*+_ C@                                    ",
"                                      D@E@F@=.C C &.G@|@8+H@I@b+J@K@.@L@M@N@N@O@P@C x.Q@* R@                                    ",
"                                    S@T@U@V@W@&.C &.X@|@Y@H@I@b+J@Z@.@L@M@N@N@`@ #X x.9@*+                                      ",
"                                    .#+#@#/.C &.~.~.G@|@Y+##$#b+]+.@.@L@M@%#M@&#W+X x.b *#                                      ",
"                                    p@=#9 -#&.&.&.&.t@|@Y+H@s+b+J@.@.@L@M@;#>#,#'#)#g.!#~#                                      ",
"                                    /@{#]#^#X X X C G@|@Y+/#(#u+_#.@:#L@<#x@[#}#&.X |#1#h+                                      ",
"                                  2#.#3#4#5#X X C ~.X@|@Y+H@6#I+7#8# @L@9#x@0#a#&.b#c#d#;                                       ",
"                                  e#p@f#g#h#Y &.~._+G@|@Y+H@i#b+j#k#l#.@m#n#0#7+C o#S@~ -@                                      ",
"                                    p#f#g#5#C &.&.&.G@|@Y+H@J.j#j#q#r#.@.@Z@s#4.C t#u#*                                         ",
"                                  v#U@w#v.x#C C C &.G@|@8+/#$#b+b+y#z#.@.@.@3@N+A#` d _                                         ",
"                                  B#C#D#E#5#C &.~.&.G@|@q+H@$#j#j#y#l#.@.@.@F#G#H#I#J#Q.K#                                      ",
"                                  >./@L#M#N#!.~.C &.O#|@Y+9+6#++b+b+P#l#K+K+J+Q#R#E ( S#                                        ",
"                                  >./@T#i U#/.&.&.~.O#|@Y@V#W#b+++b+{+H+X#Y#s+Z#`# $Q..$                                        ",
"                                  S@U@&++$f /.@$>@#$$$%$H.)+&$~+*$b+b+b+b+u@=$j.-$;$>$S                                         ",
"                                  ,$'$  )$f %.!$~$Q {$]$p+q+^$/$b+b+b+b+b+W#W+<@ $($_$}                                         ",
"                                    :$  <$m [$}$|$1$+@2$H.q+3$4$.+b+b+b+b+.+j.#+5$T#.$6$                                        ",
"                                    7$    d.8$9$0$a$N N+b$q+Z.&$c$b+b+b+b+G+`#d$e$w g.                                          ",
"                                    f$    g$h$i$' j$k$l$m$q+Y+n$o$4$.+H+.+p$q$r$g$s$t$                                          ",
"                                    u$    t$v$w$x$=+y$j.z$8+8+8+Z.^$A$B$.+&.O.C$8@x 8@                                          ",
"                                    `     D$E$B F$5$b@/.{.G$H$8+Z.I$o.J$K$L$M$N$0 K                                             ",
"                                    O$    P$+$8@Q$p@R$S$~.T$U$8+Z.V$W$X$A@Y$Z$0 0 K                                             ",
"                                            `$ %.%e$+%@%/.>+#%1@m$$%}#%%~.&%U#w *%P.                                            ",
"                                              9 =%a@-%E@;%>%W.,%a#~.>@'%D+).)%8  %v.                                            ",
"                                              8 !%B@{#~%{%]%C 5+5+C X ^%7 8 0 ..                                                ",
"                                                x.}./%- =@(%_%C C :%/.<%[%0 0 !%                                                ",
"                                                e.x ^@(@}%|%1%2%/.3%4%5%l l +$          6%                                      ",
"                                                  7 k 7%3#8%9%a@w 0%x a%0 b%v.        c%d%                                      ",
"                                                    6$9 0 e%+ f%b.g%h%i%i%j%  p                                                 ",
"                                                      k%S &+(@_ _ l%e%B@    h+m%n%                                              ",
"                                                      o%9 p%{ q%= = b.S@~ r%f%S@                                                ",
"                                                              i.s%* ! * * t%u%                                                  ",
"                                                                v%u%w%x%(@y%                                                    ",
"                                                                                                                                ",
"                                                                                                                                ",
"                                                                                                                                ",
"                                                                                                                                "};
