/* XPM */
static char * item_xpm[] = {
"64 64 244 2",
"  	c #90625D",
". 	c #9D6245",
"+ 	c #9E6346",
"@ 	c #9A6546",
"# 	c #9F6447",
"$ 	c #966845",
"% 	c #A06548",
"& 	c #9C6747",
"* 	c #976946",
"= 	c #8F6C46",
"- 	c #9D6848",
"; 	c #946B47",
"> 	c #986A47",
", 	c #906D47",
"' 	c #9E6949",
") 	c #956C48",
"! 	c #996B48",
"~ 	c #916E48",
"{ 	c #9F6A4A",
"] 	c #966D49",
"^ 	c #8D7047",
"/ 	c #887247",
"( 	c #9B6C4A",
"_ 	c #7F7547",
": 	c #926F49",
"< 	c #8E7143",
"[ 	c #A16B45",
"} 	c #847447",
"| 	c #976E4A",
"1 	c #8E7148",
"2 	c #A16B4B",
"3 	c #897348",
"4 	c #9C6D4B",
"5 	c #807648",
"6 	c #75794D",
"7 	c #93704A",
"8 	c #777947",
"9 	c #7B7847",
"0 	c #A26C46",
"a 	c #707B4D",
"b 	c #857548",
"c 	c #986F4B",
"d 	c #8F7249",
"e 	c #A26C4C",
"f 	c #6D7D48",
"g 	c #9E6E46",
"h 	c #8A7449",
"i 	c #9D6E4C",
"j 	c #787A48",
"k 	c #687F48",
"l 	c #588449",
"m 	c #50864F",
"n 	c #A36D47",
"o 	c #528649",
"p 	c #57844F",
"q 	c #867649",
"r 	c #737C48",
"s 	c #99704C",
"t 	c #A36D4D",
"u 	c #6E7E49",
"v 	c #9F6F47",
"w 	c #95724B",
"x 	c #82784A",
"y 	c #5F8349",
"z 	c #9F6F4D",
"A 	c #59854A",
"B 	c #887744",
"C 	c #53874A",
"D 	c #90744B",
"E 	c #87774A",
"F 	c #747D49",
"G 	c #648249",
"H 	c #A46E4E",
"I 	c #A07048",
"J 	c #7B7C44",
"K 	c #96734C",
"L 	c #60844A",
"M 	c #6A8149",
"N 	c #8D764B",
"O 	c #7A7C4A",
"P 	c #7F7B44",
"Q 	c #A0704E",
"R 	c #5A864B",
"S 	c #897845",
"T 	c #7E7B4A",
"U 	c #54884B",
"V 	c #88784B",
"W 	c #65834A",
"X 	c #9B724D",
"Y 	c #A66F49",
"Z 	c #7C7D45",
"` 	c #97744D",
" .	c #61854B",
"..	c #A27149",
"+.	c #6B824A",
"@.	c #A1714F",
"#.	c #5B874C",
"$.	c #55894C",
"%.	c #817C45",
"&.	c #9D7349",
"*.	c #66844B",
"=.	c #997548",
"-.	c #8E784D",
";.	c #638646",
">.	c #7D7E46",
",.	c #A3724A",
"'.	c #568A4C",
").	c #967742",
"!.	c #788046",
"~.	c #5E8847",
"{.	c #9E744A",
"].	c #957748",
"^.	c #8A7A4D",
"/.	c #77804C",
"(.	c #67854C",
"_.	c #94774E",
":.	c #917942",
"<.	c #887C41",
"[.	c #72824C",
"}.	c #62874C",
"|.	c #8F794E",
"1.	c #748247",
"2.	c #648747",
"3.	c #6E8446",
"4.	c #867C4D",
"5.	c #99764F",
"6.	c #A4734B",
"7.	c #6D844C",
"8.	c #7D7F4D",
"9.	c #798147",
"0.	c #5F8948",
"a.	c #9F754B",
"b.	c #8B7B4E",
"c.	c #827E4D",
"d.	c #95784F",
"e.	c #7E8047",
"f.	c #9B774A",
"g.	c #877D4E",
"h.	c #9A7750",
"i.	c #A5744C",
"j.	c #7B8242",
"k.	c #608A49",
"l.	c #97794A",
"m.	c #548E49",
"n.	c #837F4E",
"o.	c #6B8748",
"p.	c #A1764B",
"q.	c #967950",
"r.	c #927B4A",
"s.	c #768448",
"t.	c #668949",
"u.	c #708648",
"v.	c #728643",
"w.	c #927B50",
"x.	c #628B43",
"y.	c #5A8D49",
"z.	c #7C8343",
"A.	c #8D7D4F",
"B.	c #6C8849",
"C.	c #A2774C",
"D.	c #8A7F4A",
"E.	c #638C44",
"F.	c #5B8E4A",
"G.	c #728749",
"H.	c #5D8E44",
"I.	c #86814A",
"J.	c #698B44",
"K.	c #648D45",
"L.	c #5E8F45",
"M.	c #7D854B",
"N.	c #6F8A45",
"O.	c #6A8C45",
"P.	c #5F9046",
"Q.	c #8F8241",
"R.	c #688F41",
"S.	c #609147",
"T.	c #629140",
"U.	c #908342",
"V.	c #AA7959",
"W.	c #8F8348",
"X.	c #639241",
"Y.	c #728D48",
"Z.	c #89873C",
"`.	c #9A814A",
" +	c #699142",
".+	c #5E9543",
"++	c #928544",
"@+	c #858A3C",
"#+	c #848A43",
"$+	c #758F43",
"%+	c #659443",
"&+	c #5F9644",
"*+	c #90883E",
"=+	c #67953E",
"-+	c #878C3E",
";+	c #68963F",
">+	c #63983F",
",+	c #928A40",
"'+	c #878D46",
")+	c #699740",
"!+	c #659939",
"~+	c #649940",
"{+	c #8A8E3A",
"]+	c #6B983A",
"^+	c #938B41",
"/+	c #928B47",
"(+	c #6A9841",
"_+	c #86903A",
":+	c #669A3A",
"<+	c #659A41",
"[+	c #8F8D42",
"}+	c #6C993B",
"|+	c #87913B",
"1+	c #679B3B",
"2+	c #6D9A3C",
"3+	c #8C9043",
"4+	c #88923C",
"5+	c #689C3C",
"6+	c #809635",
"7+	c #6E9B3D",
"8+	c #6A9D36",
"9+	c #7F963D",
"0+	c #89933D",
"a+	c #699D3D",
"b+	c #6F9C3E",
"c+	c #6B9E37",
"d+	c #80973E",
"e+	c #829837",
"f+	c #729D37",
"g+	c #6C9F38",
"h+	c #81983F",
"i+	c #839938",
"j+	c #739E38",
"k+	c #6FA031",
"l+	c #6DA039",
"m+	c #70A132",
"n+	c #71A233",
"o+	c #72A335",
"p+	c #74A42D",
"q+	c #73A536",
"r+	c #E8CFA6",
"s+	c #F3E5C2",
"t+	c #F3F2C0",
"u+	c #F3F4E7",
"o+o+o+o+m+P.)+o+%+U (+p+n+;+%+n+o+n+}+X.o+o+o+c+L.k+o+8+L.m+j+H.m+g+F.y.g+o+o+o+P.2+n+o+m+n+o+o+o+n+%+;+p+n+;+P.n+2+C T.n+m+o+o+",
"m+n+o+n+T.A  .]+X.=+o+n+=+%+)+=+o+}+%+n+o+n+m+o+a+L.8+H.k+k+H.g+m+H.c+m+o+o+m+n+m+P.b+n+%+7+n+m+m+%+=+n+o+)+R L  +(+P.m+7+P.m+o+",
"y.a+m+S.A / > O A ;+n+;+L L %+n+}+X.n+n+m+7+P.n+c+U $.y.k+k+y.m+l+y.l+o+m+m+P.a+o+L.2+T.}+o+%+~.;.R ;+o+)+R j > E R K.7+y.y.T.m+",
"l+P.~.R / v 6.4 * O ~.T > * Z.q+)+T.o+7+y.y.U P.a+A y A x.f+y.c+y.$.c+m+L.y.U y.a+L.$.U }+o+X.5 > 9 =+;+R j 4 6.z * 3 K.g+k+b+y.",
"m+E./ > I 6.i.6.{ * ; i ,.,.,+!+$.T.7+y.A A A R ~.M ; ; ~ 2.A ~.A C y.y.U A A A ~.R A A #.2+X.b.6.4 J J > 4 6.i.i.z @ b T.n+n+l+",
"0.3 v ,.6.i.i.i.6.,.,.6.i.i.D.y.C $.~.A u ; ; ; ; ] ,.,...) ; , y A A A y ^ ; ; ; ; ; ; ; !.$.b.i.6.4 4 ,.,.i.i.i.6.t ^ R T.n+o+",
"; @ & - - Q i.i.i.i.i.i.i.6.p.c.A A F ; * ' ,.,.,.,.i.i.i.,...& ; ; ; ; ; @ v ,.,.,.,.,.,.| ; > - - @ @ - - e i.i.i.6.z / R T.n+",
"M , @ @ @ & - - I i.i.i.z - - ! ; ; > @ @ @ - - { 6.i.i.,.' - @ @ @ @ @ @ @ - - - ..i.i.i.{ + @ @ @ @ @ @ @ @ - - i i.6.z / R y.",
"8+B.` ,.,.' @ @ & ' ' ' & @ { ,.,.,.,.,.,.z @ @ @ ' ' ' - @ @ ..,.,.,.,.,...- @ @ - ' ' ' & @ i ,.,.,.,.,.,.i @ @ @ ' ' & , y.8+",
"H.B &.i.i.,.................,.i.i.i.i.i.i.6.................,.i.i.i.i.i.i.i.,.................6.i.i.i.i.i.i.6.........g = o.c+o+",
"l , ..i.i.i.i.i.i.z ' ' z i.i.i.i.i.i.i.i.i.i.i.i.i.i.i.i.i.i.i.i.i.i.i.i.i.i.i.i.i.i ' ' ..i.i.i.i.i.i.i.i.i.i.i.i...- ^ $.L.H.",
"A , - ' ..i.i.i.i.,.....,.i.i.i.i...' ' i i.i.i.i.i.i.i.i.i.i.i.i.i.i.i.i.i.i.i.i.i.,.....6.i.i.i.z ' ' ' z i.i.i.i.6.K B.a+)+C ",
"^ * @ @ - ' ..z Q i.i.I ' ' v ..' - @ @ @ ' i i.i.,.' ' ' ' ' ' ' ' ' ' ,.i.i.i.i ,.i.i.g ' ..z ' & @ @ @ & ' z ..g i.w.L.o+n+7+",
"+ @ e Q Q I ,.,.,.i.i.,.{ ^ q - + ' Q Q Q I ..i.,.' * F F r r r r F F * ' ,.i.i...6.i.i.,.I 6.^.^ 2 ..Q Q Q I ,.,...i.a.I.=+o+o+",
"F ; ..i.i.i.i.i.i.i.i.I 1 O.#+Q I ,.i.i.i.i.i.,.' * F C '.}+1+1+<+$.C F * ' { ,.i.i.i.i.i.i.i.'+O.1 I C.i.i.i.i.i.i.i.i.d.$.=+o+",
"C , Y i.i.z { { { { { h O.g+0+i.i.i.i.i.i.,.g ,.; f y.}+1+q+p+p+o+1+!+'.F > e 2 { { { ,.i.i.i.0+g+O.1 I i.i...{ { { { e d.y.)+T.",
"l f O 8.w @ + + + @ + = <.++`.i.i.i.,.{ 2 ' @ ' * } B Q.Q.U./+/+/+/+/+S } * ' @ + + @ ' 2 { ..`./+W._.e { 2 - + + = j.|+9+)+%+(+",
"(+(+~+y.N t z z z ' + + . % { 2 2 2 ' + & z z z z 2 + . . + { 2 2 2 { # + e z z z z - + + + ' { 2 2 2 - + ' z v w u y.<+p+m+2+o+",
"p+p+}+M.f.i.I 2 ,...z z z z ' + + + - z Q i.,.2 z 6.z @.@.@.@.i t t 4 Q z 6.i.z 2 ,...z z z z - + + + ' z ..C...V C o y.%+)+p+o+",
"%+%+y.w.i.i.Q e ,.C.i.i.i.i.,.g g g Q i.i.i.,.g z i.C.V.r+r+r+r+r+r+V.V.i.i.i.z g ,.C.i.i.i.i...g g g ..i.i.i.,.V o y.)+;+=+(+o+",
";+y.C w.i.i.i.i.Q i ..i.i.i.i.i.i.i.i.i.i.i.i.i.6.Q V.r+s+s+s+s+s+s+s+r+V.i.i.i.i.z i ,.i.i.i.i.i.i.i.i.i.i.i.i.h./.y.2+p+k+=+=+",
";+y.C w.i.i.i.i.Q 2 ..i.i.i.i.i.i.i.i.i.i.i.i.i.6.V.r+r+r+r+r+r+r+r+r+r+r+V.i.i.i.z i ,.i.i.i.i.i.i.i.i.i.i.i.i.i.w.o y.2+o+k+=+",
"%+%+y.D n ,.i.i.i.i.i.i.i.i.i.,.g g g g g I i.i.V.r+s+r+r+V.V.V.V.V.r+s+s+V.V.i.i.i.i.i.i.i.i.i...g g g g g ..i.i.h./.o L.o+o+p+",
"p+7+y.^ + { z z ,.i.i.i.,.z z ' + + + + + & z V.r+r+r+r+r+r+r+r+r+r+r+r+s+r+r+V.z 6.i.i.i...z z ' + + + + + ' z z I w.C y.2+o+o+",
")+y.C d [ & + + ' z z z ' + - 2 2 2 2 2 2 z V.V.s+r+r+r+s+t+t+t+t+t+s+r+r+s+r+V.V.H z z z - + ' 2 2 2 2 2 2 ' + + & N C y.;+o+o+",
"T.y.C w.i.z { { { { 2 2 { { I i.i.i.i.i.i.V.r+s+r+r+r+r+t+t+t+t+t+t+s+r+r+r+r+r+r+V.{ 2 2 { { ..i.i.i.i.i.i...{ { 2 N y.)+p+m+(+",
"o+H.o n.f.i.i.i.i.,.z z ,.i.i.i.i.i.i.i.V.r+r+r+r+r+r+t+t+t+s+s+u+t+t+t+r+r+r+s+r+V.V.@.z ,.i.i.i.i.i.i.i.i.i.i.i.i.w.y.2+}+)+T.",
"o+=+$.C r.i.i.i.i.z ' ' I i.i.i.i.,.I V.r+s+r+r+r+r+t+t+u+t+s+s+s+t+t+t+s+r+r+r+r+r+r+V.{ ..i.i.i.,.I I I ,.i.i.i.i.r.C y.P.=+o+",
"o+o+;+y.c.&.,.,.,.i.i.,.Q Q ,.,.Q 2 + V.r+u+r+V.r+t+t+u+u+u+s+s+s+t+t+t+s+r+r+@.r+u+r+V.,.I ,.,.Q ' + @ + ' Q ,.,...r.C y.8+o+o+",
"7+7+7+F.C h ..z Q i.i.I & * 7 2 + & { V.r+u+r+V.r+t+u+u+u+u+u+t+t+t+t+t+t+r+r+V.r+u+r+V.g ' ..w * & ' ' ' ' ' z ..0 w.'.P.X.8+o+",
"L.L.$.C C w.i.i.i.i.i.6.c !.e.' ' @.V.r+r+s+r+r+s+t+u+u+u+u+u+t+t+t+t+t+t+r+r+V.r+s+r+r+V.i.i.M.Z c 6.i.i.i.i.i.i.a.I.=+p+c+%+o+",
"o+o+%+$.W _...........c Z ~+0+i.i.V.r+s+r+r+r+s+t+t+s+u+u+u+t+t+t+t+t+t+s+r+r+r+r+r+s+s+r+V.i.0+~+Z c 6.i.i.6.....-.H.a+a+c+o+o+",
"8+8+8+F.-.' @ @ @ @ + 5 %+q+3+i.i.V.r+u+r+V.r+t+t+t+t+t+u+t+t+t+t+t+t+s+s+r+r+r+V.V.s+u+r+V.6.4+q+&+_ 2 ,.,.i @ + / '.H.H.T.c+o+",
"F.F.H.$.h - - - - - - q  +n+3+@.,.V.r+u+r+V.r+t+t+t+t+t+t+t+t+t+t+t+t+r+r+r+r+r+V.V.s+u+r+@.2 4+n+R./ + @ & ' - ! 5 H.g+o+c+%+o+",
"o+n+g+J.d.i.,.,.6.i.i.z q  +@++ @ V.r+u+r+V.r+t+t+t+t+t+t+t+t+t+t+t+t+r+r+r+r+r+V.V.s+u+r+@.& -+ +/ @ @ - g i.6.-.C C L.c+g+o+o+",
"g+g+H.r.i.i.i - I i.i.i.z q x & - V.r+u+r+V.r+t+t+t+t+t+t+t+t+t+t+t+s+r+r+r+r+r+V.V.s+u+r+V.i.c.b @ @ z i.i.i.I h C $.y.y.T.l+o+",
"y.y.C w.i.i.i.6.,.,.6.i.i.z i i.6.V.r+u+r+V.r+t+t+t+t+t+t+t+t+t+t+s+r+r+r+r+r+r+V.V.s+u+r+V.i.i & & z i.i.i.i.i.w.L L.g+n+8+T.g+",
"c+F.C w.i.i.i.i.g & z i.i.i.i.i.i.V.r+u+r+V.r+t+t+t+t+t+t+t+t+t+s+r+r+r+r+r+r+r+V.V.s+u+r+V.i.i.6.6.i.i.i.i.i.i.i.A.C P.m+o+8+y.",
"y.y.U |.6.6.i.i.6.6.i.i.i.i.i.6.,.V.r+u+r+V.r+t+t+t+t+t+t+t+t+s+r+r+r+r+r+r+r+r+V.V.s+u+r+V.i.i.6.,.,.,.,.,.6.i.i.w.L C P.o+o+m+",
"m+g+F.^ @ z 6.6.6.i.i.i.6.6.6.z @ V.r+s+r+r+r+r+t+t+t+t+t+t+s+r+r+r+r+r+r+r+r+r+r+r+s+s+r+V.6.6.2 @ @ @ @ @ 2 6.6.6.A.C H.m+o+o+",
"m+P.C 1 @ @ @ @ z 6.6.6.g @ & & @ 4 V.r+r+r+r+r+r+t+t+t+t+s+r+r+r+r+r+r+r+r+r+r+r+r+r+r+V.z @ & & @ @ @ @ @ @ @ @ { w.C U X.o+o+",
"y.R C |.6.{ @ @ & - - - & @ 2 6.6.6.i.V.r+s+r+r+r+r+r+r+r+r+r+r+r+r+r+r+r+r+r+r+r+s+r+V.- & @ z 6.6.6.6.6.6.z @ @ % 1 C P.m+o+m+",
"l+H.C w.i.6.,.,.,.,.,.,.,.,.6.i.i.i.i.i.V.r+r+s+r+V.V.V.V.V.V.V.V.V.V.V.V.V.r+r+r+r+V.i.,.,.,.6.i.i.i.i.i.i.6.,.,.6.|.H.g+n+8+y.",
"o+P.C  .r.i.i.i.i.g - - z i.i.i.i.i.6.6.6.V.r+r+r+r+V.V.V.V.V.V.V.V.V.V.V.r+r+s+r+V.2 - - ..i.i.i.i.i.6.6.i.i.i.i.i.r.U y.y.S.g+",
"o+k+L.C w.i.i.i.i.6.,.,.,.i.i.i.i.I & & { i.V.r+s+u+u+u+u+u+u+u+u+u+u+u+u+u+s+r+V.i.,.,.,.6.i.i.i.i.g & & e i.i.i.i.r.C F.c+k+o+",
"n+n+g+H.L d I e I i.i.z - z i.I - & @ @ @ - 2 V.r+r+r+r+r+r+r+r+r+r+r+r+r+r+r+V.2 ..i.i.i - Q i.g - & @ @ & - g ..2 r.C $.X.n+o+",
"F.F.y.$.C |.6.,.6.i.i.6.,.6.I & @ ' ,.,.,.,.,.i.V.V.V.V.V.V.V.V.V.V.V.V.V.V.V.i.,.6.i.i.,.,.6.g @ @ 2 ,.,.,.,.,.6.6.w.H.c+2+X.o+",
"c+8+F.C C w.i.i.i.i.i.i.i.i.6.,.,.,.i.i.i.i.i.i.i.i.i.i.i.i.i.,.,.,.i.i.i.i.i.i.i.i.i.i.i.i.i.,.,.,.6.i.i.i.i.i.i.d.O.g+o+m+g+o+",
"o+o+j+H.4.4 ' ' ' - I i.i.C.i.i.i.i.i.i.i.,.' ' ' - 2 i.i.i.C.C.i.C.C.C.i.i.{ ' ' ' ' ..i.i.i.i.C.i.i.i.i.i.Q ' - h $.H.F.%+o+o+",
":.:.).< ( @ @ @ @ @ & E $+i+^+i.i.i...' ' - @ @ ; 3.6+i+d+G.h+h+G.d+i+e+G.| @ @ @ @ @ - ' ' Q [+i+$+h ' ' ' & @ @ * , , } H.o+o+",
"f ; + + e ............c !.:+{+- ' ' - @ - ....z , R X.o+o+8+o+o+8+o+o+X.R ; z ......' @ @ @ % _+:+!.* @ @ ' ........e + , L.o+o+",
"7+u.; e 6.i.z ' ..i.i.6.c !.>.+ @ + ' ..,.i.,.' @ b R L.X.n+o+o+n+X.L.R / @ ' ' ' ,.,.......I z.!.* + { ..,.i...' z I = M $.%+o+",
"S.P s 6.i.i.,.I ,.i.i.i.6.c 7 Q Q Q ,.i.i.i.6.Q g @ } l U P.P.P.L.U A b @ z Q I I 6.i.i.i.i.i.w * + { ,.i.i.i.,.I z : B.5+7+(+P.",
"l , ..i.i.i.i.i.z ' Q i.i.,.,.i.i.i.i.i.i.i.i.i.6.g @ / / / / / / / / @ z 6.i.i.i.e ' ,.i.i.i.,.I I ,.i.i.i.i.i.i.I $ %.;+p+m+2+",
"C ^ ..i.i.i.i.i...z ,.i.i.i.i.i.i.i.i.i.i.i.i.i.i.6.I v v v v v v v v I i.i.i.i.i...z ,.i.i.i.i.i.i.i.i.i.i.i.i.i.,.[ ^ '.;+o+o+",
"/ * ' 2 { ,.i.i.i.i.i.i.i.i.i...{ 2 2 2 { z i.i.i.i.i.i.i.C.C.C.C.C.i.e 2 2 ,.i.i.i.i.i.i.i.i.i.I { 2 2 2 { I i.i.i.6.s 9 '.;+o+",
"9 ; + + + ' 2 2 ..i.i.i...2 2 ' + + + + + @ 2 2 g i.i.i.6.i 2 2 2 2 { @ + @ ' 2 2 ,.i.i.i.z 2 2 - + + + + + - 2 2 z C.6.s 9 $.X.",
"~+1.; { z - + + ' 2 2 2 - + ' z z z z z z 2 + + @ 2 2 2 { @ @ e g g g z z z @ + + ' 2 [ 2 & + ' z z z z z z ' + + & 2 2 { , ~.;+",
"=+!.c 6.i.Q g g g g g g g g ..i.i.i.i.i.i.,.g g g g g g g g z i.i.i.i.i.i.i.z g g 0 0 h 9 9 7 ,.i.i.i.i.i.i.,.g g g g { ; !.2+p+",
"l , ..C.i.i.C.i.i...i i ..i.q.c.w.i.i.i.i.i.i.i.i.i.i.i.i.i.i.i.i.i.i.i.i.i.i.i.i.A.c.*.o C [.d.i.i.i.i.i.i.i.i.C.i.,.{ , y.=+=+",
"l , 2 g ,.C.I ,.C...i i ..i.g.m.Y.4.n.n.4.c.A.i.p.4.c.g.i.i.i.i.i.i.i.i.b.c.4.n.n.*.o S.y.p P.W.i...e g e ..C.,.I C.,.| 9.=+T.p ",
"=+>.$ + { n 1 7 0 0 z z g 0 V .+g+L.C C y.S. .4.8.$..+ +n.4.4.4.4.4.4.4. .X.$.C C o P.g+T.L.g+^+H d , . + - n 7 1 0 0 D L.p+k+=+",
")+y.8 } * ^ N.1.} b ; + = } a %+p+2+y.P.P.l+P.'.%+)+o+k+'.X.$.%+%+$.%+%+y.c+)+y.P.%+g+p+P.}+p+*+: v.v.} b , ; 1.N.} } 8 y.2+o+p+",
"X.%+y.P.>.k 1+1+y.m F / s..+%+2+g+=+}+7+L.p+j+)+o+p+n+)+=+j+y.m+n+=+(+m+y.c+o+)+j+p+p+7+%+f+8+z.f >+5+y.y.v.6 %+c+H.y.%+%+%+2+o+"};
