/* XPM */
static char * p_on_e_xpm[] = {
"64 64 227 2",
"  	c #131313",
". 	c #131618",
"+ 	c #16191B",
"@ 	c #1B1B1B",
"# 	c #1A1D1F",
"$ 	c #1F2224",
"% 	c #202426",
"& 	c #391F21",
"* 	c #23292F",
"= 	c #571C27",
"- 	c #262C32",
"; 	c #282E34",
"> 	c #292F35",
", 	c #2A2F4E",
"' 	c #2B3137",
") 	c #2D3339",
"! 	c #5D2C28",
"~ 	c #32383F",
"{ 	c #353B41",
"] 	c #8E251D",
"^ 	c #373D44",
"/ 	c #3D3D3D",
"( 	c #3B4148",
"_ 	c #3D4349",
": 	c #38454A",
"< 	c #3E444B",
"[ 	c #3B484D",
"} 	c #42484F",
"| 	c #3D4A50",
"1 	c #444A51",
"2 	c #3F4C52",
"3 	c #424C6E",
"4 	c #4B5158",
"5 	c #465358",
"6 	c #4B585E",
"7 	c #4A5964",
"8 	c #4B5A65",
"9 	c #4C5C67",
"0 	c #4D5D68",
"a 	c #4E5E69",
"b 	c #4F5F6A",
"c 	c #C64524",
"d 	c #55656F",
"e 	c #5D6A70",
"f 	c #5E6B71",
"g 	c #666D74",
"h 	c #9E6346",
"i 	c #9A6546",
"j 	c #A06548",
"k 	c #976846",
"l 	c #9C6747",
"m 	c #8F6C46",
"n 	c #657392",
"o 	c #9D6848",
"p 	c #996A48",
"q 	c #906D47",
"r 	c #946C47",
"s 	c #9E6949",
"t 	c #916E48",
"u 	c #9F6A4A",
"v 	c #966D49",
"w 	c #8D7047",
"x 	c #69777D",
"y 	c #887247",
"z 	c #926F49",
"A 	c #8E7143",
"B 	c #847447",
"C 	c #976E4A",
"D 	c #8E7148",
"E 	c #A16B4B",
"F 	c #807647",
"G 	c #9C6D4B",
"H 	c #75794D",
"I 	c #93704A",
"J 	c #7B7847",
"K 	c #A26C46",
"L 	c #707B4D",
"M 	c #857548",
"N 	c #8F7249",
"O 	c #A26C4C",
"P 	c #9E6E46",
"Q 	c #8A7449",
"R 	c #777A48",
"S 	c #9D6E4C",
"T 	c #588449",
"U 	c #50864F",
"V 	c #528649",
"W 	c #57844F",
"X 	c #867649",
"Y 	c #99704B",
"Z 	c #6E7E48",
"` 	c #9F6F47",
" .	c #95724B",
"..	c #9F6F4D",
"+.	c #737D49",
"@.	c #59854A",
"#.	c #887744",
"$.	c #A46E48",
"%.	c #53874A",
"&.	c #6A8049",
"*.	c #A36E4D",
"=.	c #87774A",
"-.	c #91744B",
";.	c #5F844A",
">.	c #A07048",
",.	c #8C764B",
"'.	c #7A7C4A",
").	c #A0704E",
"!.	c #5A864B",
"~.	c #7E7B4A",
"{.	c #54884B",
"].	c #807B45",
"^.	c #66834B",
"/.	c #7B7D45",
"(.	c #97744D",
"_.	c #61854B",
":.	c #A27149",
"<.	c #5B874C",
"[.	c #55894C",
"}.	c #9D7349",
"|.	c #0098DC",
"1.	c #7D7E46",
"2.	c #A3724A",
"3.	c #8F784D",
"4.	c #568A4C",
"5.	c #967742",
"6.	c #788046",
"7.	c #5E8847",
"8.	c #9E744A",
"9.	c #77804C",
"0.	c #917942",
"a.	c #8B7A4D",
"b.	c #72824C",
"c.	c #648746",
"d.	c #A4734B",
"e.	c #7D7F4D",
"f.	c #877C4E",
"g.	c #5F8948",
"h.	c #827E4D",
"i.	c #95784F",
"j.	c #748347",
"k.	c #9B774A",
"l.	c #6F8547",
"m.	c #9A7750",
"n.	c #A5744C",
"o.	c #7C8242",
"p.	c #548E49",
"q.	c #837F4E",
"r.	c #967950",
"s.	c #927B4A",
"t.	c #927B50",
"u.	c #5A8D49",
"v.	c #8D7D4F",
"w.	c #6C8849",
"x.	c #A2774C",
"y.	c #8A7F4A",
"z.	c #738743",
"A.	c #5B8E4A",
"B.	c #5D8E44",
"C.	c #86814A",
"D.	c #648D45",
"E.	c #5E8F45",
"F.	c #7D854B",
"G.	c #6F8A45",
"H.	c #6A8C45",
"I.	c #5F9046",
"J.	c #609147",
"K.	c #629140",
"L.	c #8F8348",
"M.	c #699041",
"N.	c #639241",
"O.	c #728D48",
"P.	c #89873C",
"Q.	c #7E848C",
"R.	c #5E9543",
"S.	c #758F43",
"T.	c #659443",
"U.	c #868B3D",
"V.	c #67953E",
"W.	c #91893F",
"X.	c #68963F",
"Y.	c #699740",
"Z.	c #649940",
"`.	c #938B41",
" +	c #659A3A",
".+	c #6A9841",
"++	c #848A92",
"@+	c #6C993B",
"#+	c #87913B",
"$+	c #679B3B",
"%+	c #6D9A3C",
"&+	c #ED7614",
"*+	c #6E9B3D",
"=+	c #6A9D36",
"-+	c #699D3D",
";+	c #6F9C3E",
">+	c #6B9E37",
",+	c #80973E",
"'+	c #6C9F38",
")+	c #729E38",
"!+	c #898F97",
"~+	c #6FA031",
"{+	c #6DA039",
"]+	c #70A132",
"^+	c #71A233",
"/+	c #74A42D",
"(+	c #72A435",
"_+	c #8E959D",
":+	c #959A9C",
"<+	c #979EA6",
"[+	c #92A1B9",
"}+	c #A4AAB3",
"|+	c #E69C69",
"1+	c #A5ACB4",
"2+	c #A6ADB5",
"3+	c #A7AEB6",
"4+	c #FFA214",
"5+	c #ACB3BB",
"6+	c #B2B9C2",
"7+	c #B3BAC3",
"8+	c #B6BABD",
"9+	c #B7BBBE",
"0+	c #C5C9CC",
"a+	c #FFC825",
"b+	c #C7CFDD",
"c+	c #F6CA9F",
"d+	c #FFFFFF",
"(+(+(+(+]+I.Y.(+T.{..+/+^+X.T.^+(+^+@+N.(+(+(+>+E.~+(+=+E.]+)+B.]+'+A.u.'+(+(+(+I.%+^+(+]+^+(+(+(+^+T.X./+^+X.I.^+%+%.K.^+]+(+(+",
"]+^+(+^+K.@._.@+N.V.(+^+V.T.Y.V.(+@+T.^+(+^+]+(+-+E.=+B.~+~+B.'+]+B.>+]+(+(+]+^+]+I.;+^+T.*+^+]+]+T.V.^+(+Y.!.;.M..+I.]+*+I.]+(+",
"u.-+]+J.@.y k '.@.X.^+X.;.;.T.^+@+N.^+^+]+*+I.^+>+{.[.u.~+~+u.]+{+u.{+(+]+]+I.-+(+E.%+K.@+(+T.7.c.!.X.(+Y.!.R k =.!.D.*+u.u.K.]+",
"{+I.7.!.y ` d.G k '.7.~.k k P.(+Y.K.(+*+u.u.{.I.-+@.;.@.D.)+u.>+u.[.>+]+E.u.{.u.-+E.[.{.@+(+N.F k J V.X.!.R G d...k y D.'+~+;+u.",
"]+D.y k >.d.n.d.u k r S 2.2.W.$+[.K.*+u.@.@.@.!.7.&.r r t c.@.7.@.%.u.u.{.@.@.@.7.!.@.@.<.%+N.a.d.G 1.1.k G d.n.n...i M K.^+^+{+",
"g.y ` 2.d.n.n.n.d.2.2.d.n.n.y.u.%.[.7.@.Z r r r r v 2.2.:.v r q ;.@.@.@.;.w r r r r r r r 6.[.a.n.d.G G 2.2.n.n.n.d.O w !.K.^+(+",
"r i l o o ).n.n.n.n.n.n.n.d.x.h.@.@.+.r k s 2.2.2.2.n.n.n.2.:.l r r r r r i ` 2.2.2.2.2.2.C r k o o i i o o O n.n.n.d...y !.K.^+",
"&.q i i i l o o >.n.n.n...o o p r r k i i i o o u d.n.n.2.s o i i i i i i i o o o :.n.n.n.u h i i i i i i i i o o S n.d...y !.u.",
"=+w.(.2.2.s i i l s s s l i u 2.2.2.2.2.2...i i i s s s o i i :.2.2.2.2.2.:.o i i o s s s l i S 2.2.2.2.2.2.S i i i s s l q u.=+",
"B.#.}.n.n.2.:.:.:.:.:.:.:.:.2.n.n.n.n.n.n.d.:.:.:.:.:.:.:.:.2.n.n.n.n.n.n.n.2.:.:.:.:.:.:.:.:.d.n.n.n.n.n.n.d.:.:.:.:.P m w.>+(+",
"T q :.n.n.n.n.n.n...s s ..n.n.n.n.n.n.n.n.n.n.n.n.n.n.n.n.n.n.n.n.n.n.n.n.n.n.n.n.n.S s s :.n.n.n.n.n.n.n.n.n.n.n.n.:.o w [.E.B.",
"@.q o s :.n.n.n.n.2.:.:.2.n.n.n.n.:.s s S n.n.n.n.n.n.n.n.n.n.n.n.n.n.n.n.n.n.n.n.n.2.:.:.d.n.n.n...s s s ..n.n.n.n.d. .w.-+Y.%.",
"w k i i o s :...).n.n.>.s s ` :.s o i i i s S n.n.2.s s s s s s s s s s 2.n.n.n.S 2.n.n.P s :...s l i i i l s ..:.P n.t.E.(+^+*+",
"h i O ).).>.2.2.2.n.n.2.u w X o h s ).).).>.:.n.2.s k +.+.+.+.+.+.+.+.k s 2.n.n.:.d.n.n.2.>.d.a.w E :.).).).>.2.2.:.n.8.C.V.(+(+",
"+.r :.n.n.n.n.n.n.n.n.>.B 5 4 4 4 4 4 4 4 4 4 4 4 1 1 | 2 5 5 5 5 2 2 1 1 4 4 4 4 4 4 4 4 4 4 4 2 4 m x.n.n.n.n.n.n.n.n.i.[.V.(+",
"%.q $.n.n...u u u u u Q T Q.3+2+<+}+3+}+:+}+<+<+3+3+@ @ @ @ 3+<+<+1+:+}+3+3+3+<+<+}+:+}+3+3+}+:+}+Q.F >.n.n.:.u u u u O i.u.Y.K.",
"T Z '.e. .i h h h i h m J ++9+7+3+5+7+6+2+8+5+3+@ @ c c ] ] @ 5+3+8+3+5+7+7+7+3+5+8+2+6+7+7+6+2+8+++B O u E o h h m o.#+,+Y.T..+",
".+.+Z.u.,.O ......s h h m Q.2+}+1+1+}+}+1+1+1+@ c c c c c ] ] @ @ @ @ 1+}+}+}+1+1+1+1+}+}+}+}+1+2+Q.m o h s ..`  .Z u.Z./+]+%+(+",
"/+/+@+F.k.n.>.E 2.:.....m Q.3+1+2+2+2+1+1+1+@ c c c c c ] ] n [+[+b+b+@ 2+2+2+2+2+1+1+1+2+2+2+2+3+Q.m s ..:.x.:.=.%.V u.T.Y./+(+",
"T.T.u.t.n.n.).O 2.x.n.n.m _+9+3+9+0+9+3+9+5+@ c c c c ] ] n [+b+b+b+n [+@ 0+0+0+8+5+9+3+9+0+0+0+5+Q.m :.n.n.n.2.=.V u.Y.X.V..+(+",
"X.u.%.t.n.n.n.n.).S :.n.m g !+Q.!+_+!+Q.!+@ c c c c ] ] n [+b+b+b+n b+n [+@ _+_+++++_+Q.!+_+_+_+++e m n.n.n.n.n.m.9.u.%+/+~+V.V.",
"X.u.%.t.n.n.n.n.).E :.n.m [ 8 5 8 6 5 6 8 @ c c c ] @ n [+b+b+[+[+b+b+b+n [+@ 6 5 5 5 8 6 6 8 5 5 _ m n.n.n.n.n.n.t.V u.%+(+~+V.",
"T.T.u.-.K 2.n.n.n.n.n.n.m < 6 : 6 1 ( < @ c c c ] @ @ n n [+n b+b+  b+  [+n @ } ( ( _ 6 1 1 6 ( ( ~ m P P P :.n.n.m.9.V E.(+(+/+",
"/+*+u.w h u ....2.n.n.n.m > ' > ) ' > > @ c c ] ] @ @ n [+n b+  b+  b+  [+n @ ' > > > ) ' ' ) > > > m h h h s ....>.t.%.u.%+(+(+",
"Y.u.%.N K l h h s ......s m ~ 5 5 5 5 5 ' @ c ] @ # @ n [+n b+/ b+/ b+/ [+@ # # # $ ' 5 5 5 5 5 ~ m E E E E s h h l ,.%.u.X.(+(+",
"K.u.%.t.n...u u u u E E u o { a e e d 7 ) @ ] ] @ . . @ n n n d+|.|+|+|.@ . . . . # ) 7 d e e a { :.n.n.n.n.:.u u E ,.u.Y./+]+.+",
"(+B.V q.k.n.n.n.n.2.....2.:.{ b x x g 7 @ ] ] @ . . @ @ ] n [+[+c+c+|+|+[+@ . . . # ) 7 g x x b { :.n.n.n.n.n.n.n.n.t.u.%+@+Y.K.",
"(+V.[.%.s.n.n.n.n...s s >.:.{ b g x f 7 @ ] @ . . @ b+b+[+] n [+c+c+|+n [+@ . . . # ) 7 f x g b { >.>.>.>.2.n.n.n.n.s.%.u.I.V.(+",
"(+(+X.u.h.}.2.2.2.n.n.2.).S { b g x f @ ] ] @ . @ b+b+b+[+n ] ] c c c 3 @ . . . . # ) 7 f x g b { l h i h s ).2.2.:.s.%.u.=+(+(+",
"*+*+*+A.%.Q :...).n.n.>.l k { b g x f @ ] @ . @ [+b+b+[+[+n ] ] ] c [+3 @ . . . . # ) 7 f x g b { i s s s s s ..:.K t.4.I.N.=+(+",
"E.E.[.%.%.t.n.n.n.n.n.d.C 6.{ b g x f 7 @ # . @ n [+[+[+n n [+[+[+b+[+3 @ @ @ @ . # ) 7 f x g b { r d.n.n.n.n.n.n.8.C.V./+>+T.(+",
"(+(+T.[.^.i.:.:.:.:.:.C 1.N.{ b g x f 7 ) @ @ c b+n n n n [+[+b+b+b+[+@ n [+[+[+@ # ) 7 f x g b { /.C d.n.n.d.:.:.3.B.-+-+>+(+(+",
"=+=+=+A.3.s i i i i h F T.]+@ @ @ @ @ @ @ c c n b+b+[+3 n n [+[+b+b+[+n & & ! ! [+@ ) 7 f x g b { B.F E 2.2.S i h y 4.B.B.K.>+(+",
"A.A.B.[.Q o o o o o o X @ @ c c c c c c c c ] b+n n [+= 3 n [+[+b+b+[+3 & & ! ! ! [+@ 7 f x g b { M.y h i l s o p F B.'+(+>+T.(+",
"(+^+'+H.i.n.2.2.d.n.n.@ c c c c c c c c ] ] ] b+b+[+= = 3 n n [+[+[+3 3 n & ! ! ! [+@ 7 f x g b { y i i o P n.d.3.%.%.E.>+'+(+(+",
"'+'+B.s.n.n.S o >.n.n.@ c c c c c ] ] ] ] ] ] ] b+[+= = 3 3 n n [+[+3 3 3 , & ! ! [+@ 7 f x g b { i i ..n.n.n.>.Q %.[.u.u.K.{+(+",
"u.u.%.t.n.n.n.d.2.2.d.n.@ c c c ] ] ] ] ] ] ] &+n n = = 4+4+] ] ] ] n 3 , n n ! ! [+@ 7 f x g b { i ..n.n.n.n.n.t.;.E.'+^+=+K.'+",
">+A.%.t.n.n.n.n.P l ..n.@ c @ @ @ @ ] ] ] ] ] &+b+[+[+4+b+] ] c c c ] & 3 3 n ! ! [+@ 7 f x g b { >.n.n.n.n.n.n.n.v.%.I.]+(+=+u.",
"u.u.{.3.d.d.n.n.d.d.n.n.n.@ { b g x @ @ ] ] ] ] b+b+[+4+b+b+b+c c c c ] & 3 3 & ! [+@ 7 f x g b { >.2.2.2.2.d.n.n.t.;.%.I.(+(+]+",
"]+'+A.w i ..d.d.d.n.n.n.d.>.{ b g x f 7 @ ] ] ] ] ] a+b+d+d+b+b+b+n n ] & & & & [+@ ) 7 f x g b { i i i i i E d.d.d.v.%.B.]+(+(+",
"]+I.%.D i i i i ..d.d.d.P i { b g x f 7 ) @ @ @ @ @ a+] ] d+d+d+b+b+b+n ] & & & n @ ) 7 f x g b { i i i i i i i i u t.%.{.N.(+(+",
"u.!.%.3.d.u i i l o o o l i { b g x f 7 ) # . . . @ ] ] ] [+@ d+d+d+b+b+b+[+& n @ # ) 7 f x g b { >.d.d.d.d...i i j D %.I.]+(+]+",
"{+B.%.t.n.d.2.2.2.2.2.2.2.>.{ b g x f 7 ) # . . @ b+] n [+@ . @ @ d+d+d+b+b+n @ . # ) 7 f x g b { :.n.n.n.n.d.2.2.d.3.B.'+^+=+u.",
"(+I.%._.s.n.n.n.n.P o o ..:.{ b g x f 7 ) # . . @ b+b+[+@ # # # # @ n d+d+d+@ . . # ) 7 f x g b { :.n.d.d.n.n.n.n.n.s.{.u.u.J.'+",
"(+~+E.%.t.n.n.n.n.d.2.2.2.:.{ b g x f 7 ) # . @ [+b+[+[+@ $ $ $ $ $ @ n n @ + . . # ) 7 f x g b { :.P l l O n.n.n.n.s.%.A.>+~+(+",
"^+^+'+B.;.N >.O >.n.n...o G { b g x f 7 ) # . @ n [+[+@ % % % % % % @ n 3 3 @ # . # ) 7 f x g b { i l i i l o P :.E s.%.[.N.^+(+",
"A.A.u.[.%.3.d.2.d.n.n.d.2.>.{ b g x f 7 ) # @ b+[+n @ - - - - - - - @ 3 n n n @ $ # ) 7 f x g b { i E 2.2.2.2.2.d.d.t.B.>+%+N.(+",
">+=+A.%.%.t.n.n.n.n.n.n.n.:.{ b x x g 7 ) @ b+b+b+[+@ ; ; ; ; ; ; ; @ n n [+[+[+@ * ) 7 g x x b { >.d.n.n.n.n.n.n.i.H.'+(+]+'+(+",
"(+(+)+B.f.G s s s o >.n.n.8.{ a f f e 7 ' ; @ @ @ @ ' ' ' ' ' ' ' ' ' @ @ @ @ @ > ; ' 7 e f f a { :.n.n.n.n.).s o Q [.B.A.T.(+(+",
"0.0.5.A G i i i i i l =.S.&.1 7 0 8 7 6 4 > ) ~ ~ ~ ~ ~ ~ ~ ~ ~ ~ ~ ~ ~ ~ ~ ~ ~ ) > 1 6 9 9 7 8 1 T Q s s s l i i k q q B B.(+(+",
"Z r h h O :.:.:.:.:.:.C 6.$+U.} 0 4 } 4 l m ^ ^ ^ { { ^ ^ ^ ^ ^ ^ ^ ^ { { ^ ^ ^ ^ m o 4 6 6 } }  +6.k i i s :.:.:.:.O h q E.(+(+",
"*+l.r O d.n...s :.n.n.d.C 6.1.m i h s m 2.r :.s i M !.E.N.^+(+(+^+N.E.!.y i s s o r 2.m :.:.>.L 6.k h u :.2.n.:.s ..>.m &.[.T.(+",
"J.].Y d.n.n.2.>.2.n.n.n.d.C I ).).).2.n.n.n.d.).P i B T {.I.I.I.E.{.@.M i ..).>.>.d.n.n.n.n.n. .k h u 2.n.n.n.2.>...z w.$+*+.+I.",
"T q :.n.n.n.n.n...s ).n.n.2.2.n.n.n.n.n.n.n.n.n.d.P i y y y y y y y y i ..d.n.n.n.O s 2.n.n.n.2.>.>.2.n.n.n.n.n.n.>.k ].X./+]+%+",
"%.w :.n.n.n.n.n.:...2.n.n.n.n.n.n.n.n.n.n.n.n.n.n.d.>.` ` ` ` ` ` ` ` >.n.n.n.n.n.:...2.n.n.n.n.n.n.n.n.n.n.n.n.n.2.K w 4.X.(+(+",
"y k s E u 2.n.n.n.n.n.n.n.n.n.:.u E E E u ..n.n.n.n.n.n.n.x.x.x.x.x.n.O E E 2.n.n.n.n.n.n.n.n.n.>.u E E E u >.n.n.n.d.Y J 4.X.(+",
"J r h h h s E E :.n.n.n.:.E E s h h h h h i E E P n.n.n.d.S E E E E u i h i s E E 2.n.n.n...E E o h h h h h o E E ..x.d.Y J [.N.",
"Z.j.r u ..o h h s E E E o h s ............E h h i E E E u i i O P P P ......i h h s E K E l h s ............s h h l E E u q 7.X.",
"V.6.C d.n.).P P P P P P P P :.n.n.n.n.n.n.2.P P P P P P P P ..n.n.n.n.n.n.n...P P K K Q J J I 2.n.n.n.n.n.n.2.P P P P u r 6.%+/+",
"T q :.x.n.n.x.n.n.:.S S :.n.r.h.t.n.n.n.n.n.n.n.n.n.n.n.n.n.n.n.n.n.n.n.n.n.n.n.n.v.h.^.V %.b.i.n.n.n.n.n.n.n.n.x.n.2.u q u.V.V.",
"T q E P 2.x.>.2.x.:.S S :.n.f.p.O.f.q.q.f.h.v.n.x.f.h.f.n.n.n.n.n.n.n.n.a.h.f.q.q.^.V J.u.W I.L.n.:.O P O :.x.2.>.x.2.C 6.V.K.W ",
"V.1.k h u K D I K K ....P K =.R.'+E.%.%.u.J._.f.e.[.R.M.q.f.f.f.f.f.f.f._.N.[.%.%.V I.'+K.E.'+`.*.N q h h o K I D K K -.E./+~+V.",
"Y.u.R B k w G.j.B M r h m B L T./+%+u.I.I.{+I.4.T.Y.(+~+4.N.[.T.T.[.T.T.u.>+Y.u.I.T.'+/+I.@+/+W.z z.z.B M q r j.G.B B R u.%+(+/+",
"N.T.u.I.1.&.$+$+u.U +.y j.R.T.%+'+V.@+*+E./+)+Y.(+/+^+Y.V.)+u.]+^+V..+]+u.>+(+Y.)+/+/+*+T.)+=+o.Z Z.$+u.u.z.H T.>+B.u.T.T.T.%+(+"};
