/* XPM */
static char * wall_xpm[] = {
"64 64 244 2",
"  	c #141B1B",
". 	c #965746",
"+ 	c #9D6245",
"@ 	c #9E6346",
"# 	c #9A6546",
"$ 	c #9F6447",
"% 	c #4A7F4B",
"& 	c #966845",
"* 	c #A06548",
"= 	c #9C6747",
"- 	c #976946",
"; 	c #8F6C46",
"> 	c #9D6848",
", 	c #946B47",
"' 	c #986A47",
") 	c #906D47",
"! 	c #9E6949",
"~ 	c #956C48",
"{ 	c #996B48",
"] 	c #916E48",
"^ 	c #9F6A4A",
"/ 	c #966D49",
"( 	c #8D7047",
"_ 	c #887247",
": 	c #9B6C4A",
"< 	c #7F7547",
"[ 	c #926F49",
"} 	c #8E7143",
"| 	c #A16B45",
"1 	c #847447",
"2 	c #976E4A",
"3 	c #8E7148",
"4 	c #A16B4B",
"5 	c #897348",
"6 	c #9C6D4B",
"7 	c #807648",
"8 	c #75794D",
"9 	c #93704A",
"0 	c #777947",
"a 	c #7B7847",
"b 	c #A26C46",
"c 	c #707B4D",
"d 	c #857548",
"e 	c #986F4B",
"f 	c #8F7249",
"g 	c #A26C4C",
"h 	c #6D7D48",
"i 	c #9E6E46",
"j 	c #8A7449",
"k 	c #9D6E4C",
"l 	c #787A48",
"m 	c #687F48",
"n 	c #588449",
"o 	c #50864F",
"p 	c #A36D47",
"q 	c #528649",
"r 	c #57844F",
"s 	c #867649",
"t 	c #737C48",
"u 	c #99704C",
"v 	c #A36D4D",
"w 	c #6E7E49",
"x 	c #9F6F47",
"y 	c #95724B",
"z 	c #82784A",
"A 	c #5F8349",
"B 	c #9F6F4D",
"C 	c #59854A",
"D 	c #887744",
"E 	c #53874A",
"F 	c #90744B",
"G 	c #87774A",
"H 	c #747D49",
"I 	c #648249",
"J 	c #A46E4E",
"K 	c #A07048",
"L 	c #7B7C44",
"M 	c #96734C",
"N 	c #60844A",
"O 	c #6A8149",
"P 	c #8D764B",
"Q 	c #7A7C4A",
"R 	c #7F7B44",
"S 	c #A0704E",
"T 	c #5A864B",
"U 	c #897845",
"V 	c #7E7B4A",
"W 	c #54884B",
"X 	c #88784B",
"Y 	c #65834A",
"Z 	c #9B724D",
"` 	c #A66F49",
" .	c #7C7D45",
"..	c #97744D",
"+.	c #61854B",
"@.	c #A27149",
"#.	c #6B824A",
"$.	c #A1714F",
"%.	c #5B874C",
"&.	c #55894C",
"*.	c #817C45",
"=.	c #9D7349",
"-.	c #66844B",
";.	c #997548",
">.	c #8E784D",
",.	c #638646",
"'.	c #7D7E46",
").	c #A3724A",
"!.	c #568A4C",
"~.	c #967742",
"{.	c #788046",
"].	c #5E8847",
"^.	c #9E744A",
"/.	c #957748",
"(.	c #8A7A4D",
"_.	c #77804C",
":.	c #67854C",
"<.	c #94774E",
"[.	c #917942",
"}.	c #887C41",
"|.	c #72824C",
"1.	c #62874C",
"2.	c #8F794E",
"3.	c #748247",
"4.	c #648747",
"5.	c #6E8446",
"6.	c #867C4D",
"7.	c #99764F",
"8.	c #A4734B",
"9.	c #6D844C",
"0.	c #7D7F4D",
"a.	c #798147",
"b.	c #5F8948",
"c.	c #9F754B",
"d.	c #8B7B4E",
"e.	c #827E4D",
"f.	c #95784F",
"g.	c #7E8047",
"h.	c #9B774A",
"i.	c #877D4E",
"j.	c #9A7750",
"k.	c #A5744C",
"l.	c #7B8242",
"m.	c #608A49",
"n.	c #97794A",
"o.	c #548E49",
"p.	c #837F4E",
"q.	c #6B8748",
"r.	c #A1764B",
"s.	c #967950",
"t.	c #927B4A",
"u.	c #768448",
"v.	c #668949",
"w.	c #708648",
"x.	c #728643",
"y.	c #927B50",
"z.	c #628B43",
"A.	c #5A8D49",
"B.	c #7C8343",
"C.	c #8D7D4F",
"D.	c #6C8849",
"E.	c #A2774C",
"F.	c #8A7F4A",
"G.	c #638C44",
"H.	c #5B8E4A",
"I.	c #728749",
"J.	c #5D8E44",
"K.	c #86814A",
"L.	c #698B44",
"M.	c #648D45",
"N.	c #5E8F45",
"O.	c #7D854B",
"P.	c #6F8A45",
"Q.	c #6A8C45",
"R.	c #5F9046",
"S.	c #8F8241",
"T.	c #688F41",
"U.	c #609147",
"V.	c #629140",
"W.	c #908342",
"X.	c #8F8348",
"Y.	c #639241",
"Z.	c #728D48",
"`.	c #89873C",
" +	c #9A814A",
".+	c #699142",
"++	c #5E9543",
"@+	c #928544",
"#+	c #858A3C",
"$+	c #848A43",
"%+	c #E46D3A",
"&+	c #758F43",
"*+	c #659443",
"=+	c #5F9644",
"-+	c #90883E",
";+	c #67953E",
">+	c #878C3E",
",+	c #68963F",
"'+	c #63983F",
")+	c #928A40",
"!+	c #878D46",
"~+	c #699740",
"{+	c #659939",
"]+	c #649940",
"^+	c #8A8E3A",
"/+	c #6B983A",
"(+	c #938B41",
"_+	c #928B47",
":+	c #6A9841",
"<+	c #86903A",
"[+	c #669A3A",
"}+	c #659A41",
"|+	c #8F8D42",
"1+	c #6C993B",
"2+	c #87913B",
"3+	c #679B3B",
"4+	c #6D9A3C",
"5+	c #8C9043",
"6+	c #88923C",
"7+	c #689C3C",
"8+	c #809635",
"9+	c #6E9B3D",
"0+	c #6A9D36",
"a+	c #7F963D",
"b+	c #89933D",
"c+	c #699D3D",
"d+	c #6F9C3E",
"e+	c #6B9E37",
"f+	c #80973E",
"g+	c #829837",
"h+	c #729D37",
"i+	c #6C9F38",
"j+	c #81983F",
"k+	c #839938",
"l+	c #739E38",
"m+	c #6FA031",
"n+	c #6DA039",
"o+	c #70A132",
"p+	c #71A233",
"q+	c #72A335",
"r+	c #74A334",
"s+	c #74A42D",
"t+	c #73A536",
"u+	c #ADBC3A",
"q+q+q+q+o+R.~+q+*+W :+s+p+,+*+p+q+p+1+Y.q+q+q+e+N.m+q+0+N.o+l+J.o+i+H.A.i+q+q+q+R.4+p+q+o+p+q+q+q+p+*+,+s+p+,+R.p+4+E V.p+o+q+q+",
"o+p+q+p+V.C +./+Y.;+q+p+;+*+~+;+q+1+*+p+q+p+o+q+c+N.0+J.m+m+J.i+o+J.e+o+q+q+o+p+o+R.d+p+*+9+p+o+o+*+;+p+q+~+T N .+:+R.o+9+R.o+q+",
"A.c+o+U.C _ ' Q C ,+p+,+N N *+p+1+Y.p+p+o+9+R.p+e+W &.A.m+m+A.o+n+A.n+q+o+o+R.c+q+N.4+V.1+q+*+].,.T ,+q+~+T l ' G T M.9+A.A.V.o+",
"n+R.].T _ x 8.6 - Q ].V ' - `.t+~+V.q+9+A.A.W R.c+C A C z.h+A.e+A.&.e+o+N.A.W A.c+N.&.W 1+q+Y.7 ' a ;+,+T l 6 8.B - 5 M.i+m+d+A.",
"o+G._ ' K 8.k.8.^ - , k ).).)+{+&.V.9+A.C C C T ].O , , ] 4.C ].C E A.A.W C C C ].T C C %.4+Y.d.8.6 L L ' 6 8.k.k.B # d V.p+p+n+",
"b.5 x ).8.k.k.k.8.).).8.k.k.F.A.E &.].C w , , , , / ).).@.~ , ) A C C C A ( , , , , , , , {.&.d.k.8.6 6 ).).k.k.k.8.v ( T V.p+q+",
", # = > > S k.k.k.k.k.k.k.8.r.e.C C H , - ! ).).).).k.k.k.).@.      , , , # x ).).).).).).2 , ' > > # # > > g k.k.k.8.B _ T V.p+",
"O ) # # # = > > K k.k.k.B > > { , , ' # # # > > ^ 8.k.k.      r+u+r+      # > > > @.k.k.k.^ @ # # # # # # # # > > k k.8.B _ T A.",
"0+D...).).! # # = ! ! ! = # ^ ).).).).).).B # # # !     r+r+r+u+u+u+r+r+r+    # # > ! ! ! = # k ).).).).).).k # # # ! ! = ) A.0+",
"J.D =.k.k.).@.@.@.@.@.@.@.@.).k.k.k.k.k.k.8.      % r+r+u+u+u+u+u+u+u+u+u+r+r+%       @.@.@.@.8.k.k.k.k.k.k.8.@.@.@.@.i ; q.e+q+",
"n ) @.k.k.k.k.k.k.B ! ! B k.k.k.k.k.k.k.k.% r+r+% % u+u+u+u+u+u+u+u+u+u+u+u+u+% % r+r+% ! @.k.k.k.k.k.k.k.k.k.k.k.k.@.> ( &.N.J.",
"C ) > ! @.k.k.k.k.).@.@.).k.k.k.k.@.! ! % r+u+u+u+r+u+u+u+u+u+u+u+u+u+u+u+u+u+r+u+u+u+r+% 8.k.k.k.B ! ! ! B k.k.k.k.8.M D.c+~+E ",
"( - # # > ! @.B S k.k.K ! ! x @.! > #   r+u+u+u+u+u+u+u+u+u+u+u+u+u+u+u+u+u+u+u+u+u+u+u+r+  @.B ! = # # # = ! B @.i k.y.N.q+p+9+",
"@ # g S S K ).).).k.k.).^ ( s % % % S   r+u+u+u+u+u+u+u+u+u+u+u+u+u+u+u+u+u+u+u+u+u+u+u+r+  8.% % % @.S S S K ).).@.k.c.K.;+q+q+",
"H , @.k.k.k.k.k.k.k.k.K 3 Q.r+u+u+r+% r+u+u+u+u+u+u+u+u+u+u+u+u+u+u+u+u+u+u+u+u+u+u+u+u+u+r+% r+u+u+r+E.k.k.k.k.k.k.k.k.f.&.;+q+",
"E ) ` k.k.B ^ ^ ^ ^ ^ j Q.% u+u+u+r+r+r+u+u+u+u+u+u+u+u+u+u+u+u+u+u+u+u+u+u+u+u+u+u+u+u+u+r+r+r+u+u+u+% k.k.@.^ ^ ^ ^ g f.A.~+V.",
"n h Q 0.y # @ @ @ # @ ; }.% u+u+u+u+r+r+u+u+u+u+u+u+u+r+u+u+u+u+u+u+u+u+u+r+u+u+u+u+u+u+u+r+r+u+u+u+u+% ^ 4 > @ @ ; l.2+a+~+*+:+",
":+:+]+A.P v B B B ! @ @ r+u+u+u+u+u+u+r+r+u+u+u+u+u+r+u+u+u+u+u+u+u+u+u+u+u+r+u+u+u+u+u+r+r+u+u+u+u+u+u+r+! B x y w A.}+s+o+4+q+",
"s+s+1+O.h.k.K 4 ).@.B   r+u+u+u+u+u+u+u+u+u+u+u+u+r+r+u+u+u+u+u+u+u+u+u+u+u+r+r+u+u+u+u+u+u+u+u+u+u+u+u+r+  E.@.X E q A.*+~+s+q+",
"*+*+A.y.k.k.S g ).E.k.k.% r+u+u+u+u+u+u+u+u+r+r+r+r+r+u+u+u+u+u+u+u+u+u+u+u+r+r+r+r+r+u+u+u+u+u+u+u+u+r+% k.k.).X q A.~+,+;+:+q+",
",+A.E y.k.k.k.k.S k @.k.% r+u+u+u+u+u+u+u+r+r+r+r+r+r+u+u+u+u+u+u+u+u+u+u+u+r+r+r+r+r+r+u+u+u+u+u+u+u+r+% k.k.k.j._.A.4+s+m+;+;+",
",+A.E y.k.k.k.k.S 4 @.% r+u+u+u+u+u+u+r+r+r+r+r+r+r+r+u+u+u+u+u+u+u+u+u+u+u+r+r+r+r+r+r+r+r+u+u+u+u+u+u+r+% k.k.k.y.q A.4+q+m+;+",
"*+*+A.F p ).k.k.k.k.% r+r+r+u+u+u+u+u+u+r+r+r+r+r+r+r+r+u+u+u+u+u+u+u+u+u+r+r+r+r+r+r+r+r+u+u+u+u+u+u+r+r+r+% k.k.j._.q N.q+q+s+",
"s+9+A.( @ ^ B B ).  % r+r+r+u+u+u+u+u+u+r+r+r+r+r+r+r+r+r+u+u+u+u+u+u+u+r+r+r+r+r+r+r+r+r+u+u+u+u+u+u+r+r+r+%   B K y.E A.4+q+q+",
"~+A.E f | = @ @ ! % r+r+r+r+r+u+u+u+u+u+u+r+r+r+r+r+r+r+u+u+u+u+u+u+u+u+u+r+r+r+r+r+r+r+u+u+u+u+u+u+r+r+r+r+r+% @ = P E A.,+q+q+",
"V.A.E y.k.B ^ ^ % r+u+u+r+r+r+r+r+u+u+u+u+r+r+r+r+r+r+u+u+u+u+u+u+u+u+u+u+u+r+r+r+r+r+r+u+u+u+u+r+r+r+r+r+u+u+r+% 4 P A.~+s+o+:+",
"q+J.q p.h.k.k.  r+u+u+u+u+r+r+r+u+u+u+u+u+u+r+r+u+u+r+r+u+u+u+u+u+u+u+u+u+r+r+u+u+r+r+u+u+u+u+u+u+r+r+r+u+u+u+u+r+  y.A.4+1+~+V.",
"q+;+&.E t.k.  r+u+u+u+u+u+r+r+r+u+u+u+u+u+u+u+u+u+u+u+u+r+u+u+u+u+u+u+u+r+u+u+u+u+u+u+u+u+u+u+u+u+r+r+r+u+u+u+u+u+r+  E A.R.;+q+",
"q+q+,+A.e.=.  u+u+u+u+u+u+r+r+r+r+u+u+u+u+u+u+u+u+u+u+u+u+u+u+u+u+u+u+u+u+u+u+u+u+u+u+u+u+u+u+u+r+r+r+r+u+u+u+u+u+u+  E A.0+q+q+",
"9+9+9+H.E j   u+u+u+u+u+u+r+r+% r+u+u+u+u+u+u+u+u+u+u+u+u+u+u+u+u+u+u+u+u+u+u+u+u+u+u+u+u+u+u+u+r+% r+r+u+u+u+u+u+u+  !.R.Y.0+q+",
"N.N.&.E E y.  r+u+u+u+u+u+r+r+r+r+r+u+u+u+u+u+u+u+u+u+u+u+u+u+u+u+u+u+u+u+u+u+u+u+u+u+u+u+u+u+r+r+r+r+r+u+u+u+u+u+r+  ;+s+e+*+q+",
"q+q+*+&.Y <.@.% r+u+u+u+u+u+r+r+r+r+r+u+u+u+u+u+u+u+u+u+u+u+u+u+u+u+u+u+u+u+u+u+u+u+u+u+u+u+r+r+r+r+r+u+u+u+u+u+r+% J.c+c+e+q+q+",
"0+0+0+H.>.! #   % % r+u+u+u+r+r+r+r+r+r+u+u+u+u+u+u+u+u+u+u+u+u+u+u+u+u+u+u+u+u+u+u+u+u+u+r+r+r+r+r+r+u+u+u+r+% %   !.J.J.V.e+q+",
"H.H.J.&.j > > >     r+u+u+u+u+r+r+u+u+r+r+u+r+r+u+u+u+u+r+u+u+u+u+u+u+u+r+u+u+u+u+r+r+u+r+r+u+u+r+r+u+u+u+u+r+    7 J.i+q+e+*+q+",
"q+p+i+L.f.k.).).  r+u+u+u+u+u+u+u+u+u+u+r+r+r+r+r+u+u+u+r+u+u+u+u+u+u+u+r+u+u+u+r+r+r+r+r+u+u+u+u+u+u+u+u+u+u+r+  E E N.e+i+q+q+",
"i+i+J.t.k.k.k >   % r+r+u+u+u+u+u+u+u+u+r+r+r+r+r+r+u+r+r+r+u+u+u+u+u+r+r+r+u+r+r+r+r+r+r+u+u+u+u+u+u+u+u+r+r+%   E &.A.A.V.n+q+",
"A.A.E y.k.k.k.8.).  % r+r+u+u+u+u+u+u+u+r+r+r+r+r+r+r+r+r+r+r+r+r+r+r+r+r+r+r+r+r+r+r+r+r+u+u+u+u+u+u+u+r+r+%   y.N N.i+p+0+V.i+",
"e+H.E y.k.k.k.k.i   % r+r+r+u+u+u+u+u+r+r+r+r+r+r+r+r+r+r+r+r+r+r+r+r+r+r+r+r+r+r+r+r+r+r+r+u+u+u+u+u+r+r+r+%   k.C.E R.o+q+0+A.",
"A.A.W 2.8.8.k.k.8.8.  % r+r+r+r+r+r+r+r+r+r+r+r+r+r+r+r+r+r+r+r+r+r+r+r+r+r+r+r+r+r+r+r+r+r+r+r+r+r+r+r+r+%   k.k.y.N E R.q+q+o+",
"o+i+H.( # B 8.8.8.k.k.  % r+r+r+r+r+r+r+r+r+r+r+r+r+r+% r+r+r+r+r+r+r+r+r+% r+r+r+r+r+r+r+r+r+r+r+r+r+r+%   4 8.8.8.C.E J.o+q+q+",
"o+R.E 3 # # # # B 8.8.8.% % % r+r+% % r+r+r+r+r+r+r+r+r+% r+r+r+r+r+r+r+% r+r+r+r+r+r+r+r+r+% % r+r+% % % # # # # ^ y.E W Y.q+q+",
"A.T E 2.8.^ # # = > > > = #   % %   % r+r+r+r+r+r+r+r+r+% % % r+r+r+% % % r+r+r+r+r+r+r+r+r+%   % %   8.8.8.B # # * 3 E R.o+q+o+",
"n+J.E y.k.8.).).).).).).).).8.    k.k.% r+r+r+r+r+r+r+r+% % % % r+% % % % r+r+r+r+r+r+r+r+% ).8.    k.k.k.k.8.).).8.2.J.i+p+0+A.",
"q+R.E +.t.k.k.k.k.i > > B k.k.k.k.k.8.8.% r+r+r+r+r+r+% % % % % % % % % % % r+r+r+r+r+r+% @.k.k.k.k.k.8.8.k.k.k.k.k.t.W A.A.U.i+",
"q+m+N.E y.k.k.k.k.8.).).).k.k.k.k.K = = ^ % r+r+r+% % % % % % % % % % % % % % % r+r+r+% ).8.k.k.k.k.i = = g k.k.k.k.t.E H.e+m+q+",
"p+p+i+J.N f K g K k.k.B > B k.K > = # # #     % % %   % % % % % % % % % % %   % % %     k > S k.i > = # # = > i @.4 t.E &.Y.p+q+",
"H.H.A.&.E 2.8.).8.k.k.8.).8.K = # ! ).).).  . . .   k.  . . % % % % % . .   ).  . . .   ).).8.i # # 4 ).).).).).8.8.y.J.e+4+Y.q+",
"e+0+H.E E y.k.k.k.k.k.k.k.k.8.).).).k.k.k.  . . . .   . %+. . . . . . . %+.   . . . .   k.k.k.).).).8.k.k.k.k.k.k.f.Q.i+q+o+i+q+",
"q+q+l+J.6.6 ! ! ! > K k.k.E.k.k.k.k.k.k.k.).  . . . . . %+. %+. . %+%+. %+. . . . .   @.k.k.k.k.E.k.k.k.k.k.S ! > j &.J.H.*+q+q+",
"[.[.~.} : # # # # # = G &+k+(+k.k.k.@.! ! > #       . . %+. %+%+%+%+%+%+%+. .       # > ! ! S |+k+&+j ! ! ! = # # - ) ) 1 J.q+q+",
"h , @ @ g @.@.@.@.@.@.e {.[+^+> ! ! > # > @.@.B )   . . %+%+%+%+%+%+%+%+%+. .   @.@.! # # # * <+[+{.- # # ! @.@.@.@.g @ ) N.q+q+",
"9+w., g 8.k.B ! @.k.k.8.e {.'.@ # @ ! @.).k.).! . %+%+%+. %+%+%+%+%+%+%+. %+%+%+. ).).@.@.@.K B.{.- @ ^ @.).k.@.! B K ; O &.*+q+",
"U.R u 8.k.k.).K ).k.k.k.8.e 9 S S S ).k.k.k.8.S . %+%+%+%+%+%+%+%+%+%+%+%+%+%+%+. 8.k.k.k.k.k.y - @ ^ ).k.k.k.).K B [ D.7+9+:+R.",
"n ) @.k.k.k.k.k.B ! S k.k.).).k.k.k.k.k.k.k.k.k.%+%+%+%+%+%+. %+%+%+. %+%+%+%+%+%+g ! ).k.k.k.).K K ).k.k.k.k.k.k.K & *.,+s+o+4+",
"E ( @.k.k.k.k.k.@.B ).k.k.k.k.k.k.k.k.k.k.k.k.k.%+%+%+%+%+. %+%+%+%+%+. %+%+%+%+%+@.B ).k.k.k.k.k.k.k.k.k.k.k.k.k.).| ( !.,+q+q+",
"_ - ! 4 ^ ).k.k.k.k.k.k.k.k.k.@.^ 4 4 4 ^ B k.k.k.%+%+. . %+%+%+. %+%+%+. . %+%+k.k.k.k.k.k.k.k.K ^ 4 4 4 ^ K k.k.k.8.u a !.,+q+",
"a , @ @ @ ! 4 4 @.k.k.k.@.4 4 ! @ @ @ @ @ # 4 4 i . . k.. %+. %+%+%+. %+. # . . 4 ).k.k.k.B 4 4 > @ @ @ @ @ > 4 4 B E.8.u a &.Y.",
"]+3., ^ B > @ @ ! 4 4 4 > @ ! B B B B B B 4 @ @ # 4 4 4 . %+. %+%+%+. %+. B # @ @ ! 4 | 4 = @ ! B B B B B B ! @ @ = 4 4 ^ ) ].,+",
";+{.e 8.k.S i i i i i i i i @.k.k.k.k.k.k.).i i i i i i i . %+%+%+%+%+. k.k.B i i b b j a a 9 ).k.k.k.k.k.k.).i i i i ^ , {.4+s+",
"n ) @.E.k.k.E.k.k.@.k k @.k.s.e.y.k.k.k.k.k.k.k.k.k.k.k.k.k.k.k.k.k.k.k.k.k.k.k.k.C.e.-.q E |.f.k.k.k.k.k.k.k.k.E.k.).^ ) A.;+;+",
"n ) 4 i ).E.K ).E.@.k k @.k.i.o.Z.6.p.p.6.e.C.k.r.6.e.i.k.k.k.k.k.k.k.k.d.e.6.p.p.-.q U.A.r R.X.k.@.g i g @.E.).K E.).2 a.;+V.r ",
";+'.& @ ^ p 3 9 b b B B i b X ++i+N.E E A.U.+.6.0.&.++.+p.6.6.6.6.6.6.6.+.Y.&.E E q R.i+V.N.i+(+J f ) + @ > p 9 3 b b F N.s+m+;+",
"~+A.0 1 - ( P.3.1 d , @ ; 1 c *+s+4+A.R.R.n+R.!.*+~+q+m+!.Y.&.*+*+&.*+*+A.e+~+A.R.*+i+s+R.1+s+-+[ x.x.1 d ) , 3.P.1 1 0 A.4+q+s+",
"Y.*+A.R.'.m 3+3+A.o H _ u.++*+4+i+;+1+9+N.s+l+~+q+s+p+~+;+l+A.o+p+;+:+o+A.e+q+~+l+s+s+9+*+h+0+B.h '+7+A.A.x.8 *+e+J.A.*+*+*+4+q+"};
